<?xml version="1.0" standalone="no"?>
<!DOCTYPE svg PUBLIC "-//W3C//DTD SVG 20010904//EN"
 "http://www.w3.org/TR/2001/REC-SVG-20010904/DTD/svg10.dtd">
<svg version="1.0" xmlns="http://www.w3.org/2000/svg"
 width="5907.000000pt" height="5905.000000pt" viewBox="0 0 5907.000000 5905.000000"
 preserveAspectRatio="xMidYMid meet">

<g transform="translate(0.000000,5905.000000) scale(0.100000,-0.100000)"
fill="#000000" stroke="none">
<path d="M16175 53281 c-189 -67 -220 -81 -217 -97 5 -27 120 -413 126 -423 3
-5 38 -28 78 -52 40 -23 79 -49 86 -56 8 -7 23 -18 34 -24 11 -6 17 -13 14
-16 -7 -7 40 -53 55 -53 6 0 20 -10 30 -22 11 -11 19 -18 19 -15 0 3 14 1 30
-4 17 -6 30 -15 30 -21 0 -5 5 -6 10 -3 6 3 10 2 10 -4 0 -5 19 -11 42 -13 23
-2 43 -8 45 -14 6 -17 -78 -104 -147 -155 -33 -24 -60 -47 -60 -51 0 -6 239
-323 289 -384 59 -72 211 -274 211 -281 0 -5 11 -16 25 -23 20 -11 27 -11 41
1 14 12 19 10 34 -9 10 -12 23 -22 28 -22 6 0 12 -4 14 -9 2 -6 14 -11 28 -13
14 -2 34 -9 45 -15 19 -12 18 -14 -25 -51 -35 -31 -42 -42 -34 -53 32 -41 479
-596 489 -607 10 -11 30 -16 83 -21 7 0 10 -5 7 -11 -3 -5 -1 -10 5 -10 6 0
20 -9 32 -20 13 -12 36 -20 55 -20 18 0 33 -4 33 -9 0 -5 11 -8 25 -7 14 0 25
4 25 9 0 4 7 7 16 7 12 0 9 -8 -13 -34 -15 -19 -34 -35 -40 -35 -7 -1 -13 -5
-13 -9 0 -4 19 -8 43 -8 23 -1 32 1 20 3 -42 8 -24 23 27 23 28 0 50 5 50 10
0 6 9 10 21 10 11 0 17 5 14 10 -4 6 10 10 34 10 23 0 41 5 41 10 0 6 7 10 15
10 8 0 15 5 15 10 0 6 7 10 15 10 8 0 35 20 60 44 39 37 45 49 45 84 0 40 -1
41 -26 32 -34 -13 -34 -13 -34 15 0 14 -4 25 -10 25 -5 0 -10 14 -10 30 0 17
-4 30 -10 30 -5 0 -10 9 -10 20 0 11 -4 20 -10 20 -5 0 -10 7 -10 15 0 8 -5
15 -10 15 -6 0 -9 3 -8 8 4 13 -13 52 -22 52 -5 0 -7 7 -4 15 4 8 2 15 -4 15
-5 0 -12 9 -15 21 -3 12 -10 18 -16 14 -7 -3 -11 2 -11 14 0 12 -4 21 -10 21
-5 0 -10 7 -10 15 0 9 -9 25 -20 37 -11 12 -20 30 -20 40 0 10 -4 18 -10 18
-5 0 -10 10 -10 23 0 18 -2 19 -10 7 -8 -12 -10 -10 -10 8 0 13 -8 36 -18 50
-11 15 -25 41 -33 59 -7 17 -17 29 -21 27 -8 -5 -12 11 -9 29 1 5 -2 6 -7 3
-18 -11 -74 60 -139 175 -37 66 -70 119 -74 119 -4 0 -32 -21 -62 -46 -58 -47
-77 -50 -77 -9 0 27 -19 75 -30 75 -10 0 -34 53 -31 69 1 7 -2 10 -8 6 -7 -3
-11 3 -11 15 0 12 -4 19 -9 16 -5 -3 -21 10 -35 29 -15 19 -24 35 -20 35 4 0
-2 8 -12 18 -32 28 -74 88 -74 105 0 9 -5 19 -12 23 -7 5 -9 2 -4 -7 4 -8 0
-5 -8 5 -9 11 -16 25 -16 30 0 6 5 4 11 -4 9 -13 10 -13 6 0 -2 8 -12 14 -21
14 -12 -1 -16 4 -14 20 2 15 -2 20 -14 18 -9 -1 -22 7 -29 20 -7 13 -21 31
-32 41 -11 9 -17 17 -13 17 4 0 -3 11 -16 24 -29 30 -50 57 -100 128 -36 50
-45 57 -84 63 -24 3 -44 10 -44 16 0 5 5 9 10 9 15 0 12 148 -3 193 -8 20 -17
34 -20 30 -4 -3 -7 8 -7 26 0 19 -4 30 -10 26 -6 -3 -10 4 -10 18 0 31 -29 89
-41 82 -5 -4 -9 1 -9 9 0 9 -4 16 -8 16 -4 0 -8 9 -9 20 -1 11 -11 33 -22 49
-12 16 -21 32 -21 36 0 15 -32 36 -46 31 -11 -4 -15 -2 -11 8 3 8 -2 17 -11
21 -14 5 -14 7 -2 15 13 9 13 10 0 10 -9 0 -36 42 -66 102 -29 56 -56 103 -60
104 -5 2 -108 -33 -229 -75z"/>
<path d="M29751 53263 l-74 -4 7 -492 c3 -271 8 -589 11 -707 4 -174 3 -210
-7 -191 -7 13 -136 328 -288 700 l-276 676 -127 3 -127 3 0 -83 c0 -63 39
-2264 40 -2275 0 -2 75 -3 167 -3 l166 0 -6 308 c-4 169 -9 512 -13 762 l-5
455 294 -755 295 -755 118 3 c65 2 119 4 120 5 1 1 -6 486 -17 1077 -10 591
-19 1121 -19 1178 l0 102 -92 -2 c-51 -1 -126 -4 -167 -5z"/>
<path d="M30419 53238 c-6 -33 -154 -2345 -150 -2349 7 -7 880 -64 886 -58 3
4 23 251 20 256 0 1 -124 10 -275 19 -151 10 -278 20 -281 23 -8 8 45 808 53
817 4 3 93 1 198 -6 105 -7 193 -11 195 -8 5 4 24 250 21 255 -1 1 -90 8 -199
14 l-197 13 0 35 c0 36 42 704 44 708 1 1 127 -7 281 -17 154 -10 281 -18 281
-17 1 1 5 59 9 129 l8 127 -24 5 c-22 4 -812 57 -851 56 -10 0 -18 -1 -19 -2z"/>
<path d="M28276 53219 c-66 -5 -121 -11 -124 -14 -6 -6 141 -2333 148 -2344 4
-6 318 6 327 13 1 1 -32 523 -72 1161 -41 638 -75 1168 -75 1178 0 19 -8 20
-204 6z"/>
<path d="M27190 53139 c-150 -18 -286 -82 -370 -176 -94 -104 -131 -208 -131
-369 0 -269 108 -479 320 -617 36 -24 169 -110 294 -191 242 -158 317 -217
365 -294 63 -98 82 -254 42 -338 -49 -101 -208 -145 -325 -90 -106 49 -177
171 -225 384 -7 28 -15 52 -18 52 -11 0 -297 -113 -306 -121 -16 -14 33 -181
85 -287 116 -240 308 -353 575 -339 191 11 319 60 425 166 105 105 138 194
139 369 0 135 -21 224 -80 347 -89 181 -166 253 -524 483 -143 92 -283 189
-312 215 -122 111 -164 315 -89 429 50 76 183 114 290 83 101 -29 188 -142
228 -298 9 -33 18 -61 21 -64 5 -5 295 104 309 117 14 12 -22 127 -69 227 -74
154 -206 264 -364 301 -69 16 -197 21 -280 11z"/>
<path d="M31863 53106 c-116 -27 -222 -92 -292 -179 -126 -157 -164 -449 -87
-663 39 -107 83 -167 290 -392 262 -287 301 -334 343 -419 45 -92 55 -189 29
-287 -33 -119 -97 -170 -213 -170 -131 1 -213 60 -264 193 -18 46 -23 82 -27
204 -2 81 -7 147 -11 147 -7 0 -206 -25 -290 -36 l-43 -6 4 -146 c6 -169 29
-259 95 -371 103 -172 306 -271 560 -271 169 0 288 46 386 149 104 109 150
244 150 436 0 142 -17 223 -72 339 -56 118 -115 194 -351 451 -224 244 -260
296 -280 405 -28 147 43 301 152 331 102 27 241 -16 298 -94 42 -57 70 -153
77 -264 4 -55 10 -93 17 -93 13 0 251 29 295 36 l34 5 -6 102 c-12 193 -59
311 -171 422 -81 80 -160 124 -283 156 -102 26 -259 33 -340 15z"/>
<path d="M26116 52959 c-77 -16 -141 -31 -144 -34 -3 -2 55 -292 128 -642 233
-1125 232 -1115 210 -1242 -19 -116 -86 -192 -199 -225 -109 -32 -212 -12
-282 54 -46 44 -109 172 -138 283 -11 43 -93 430 -182 860 -89 430 -163 783
-163 784 -2 3 -317 -65 -322 -70 -7 -7 311 -1534 341 -1641 95 -334 247 -518
467 -566 72 -16 281 -7 363 15 238 65 385 211 429 427 18 87 21 275 6 383 -5
39 -83 424 -172 857 -151 730 -164 788 -183 787 -11 -1 -83 -14 -159 -30z"/>
<path d="M33266 52860 c-120 -31 -247 -126 -311 -235 -60 -101 -87 -202 -92
-345 -9 -240 22 -311 288 -650 233 -298 283 -373 311 -463 36 -120 12 -263
-58 -345 -43 -51 -87 -66 -174 -60 -124 9 -212 80 -247 198 -18 60 -23 206
-10 304 l8 59 -167 -6 c-101 -3 -170 -9 -177 -16 -18 -18 -14 -293 6 -373 57
-231 214 -380 462 -439 127 -30 291 -24 385 15 138 56 237 168 286 320 67 212
52 420 -43 609 -48 97 -69 127 -270 384 -206 265 -226 295 -248 378 -36 132 9
294 98 353 36 24 50 27 121 27 68 0 90 -4 138 -28 110 -54 153 -149 152 -336
l-1 -113 166 7 c91 4 168 9 171 12 2 2 6 50 8 106 11 307 -129 510 -419 608
-82 28 -110 32 -219 35 -69 2 -142 -1 -164 -6z"/>
<path d="M42331 52190 c-132 -187 -242 -344 -243 -348 -2 -5 49 -53 112 -107
63 -53 119 -104 123 -111 4 -8 16 -14 27 -14 10 0 25 -7 34 -15 8 -8 23 -15
33 -15 15 0 16 -2 3 -10 -10 -7 9 -10 63 -10 45 0 77 4 77 10 0 6 9 10 21 10
11 0 17 5 14 10 -3 6 1 10 10 10 9 0 13 5 10 10 -4 6 6 10 22 10 20 0 24 3 14
9 -12 8 -12 12 2 25 8 9 18 16 22 16 7 0 215 207 215 215 0 10 28 35 39 35 6
0 11 6 11 14 0 8 6 16 12 18 9 3 12 29 12 83 -1 64 -4 80 -20 92 -10 7 -25 11
-33 8 -11 -5 -12 -3 -1 10 11 13 15 13 22 3 5 -9 7 -5 5 10 -2 14 -71 91 -178
198 -95 96 -177 174 -180 174 -4 0 -115 -153 -248 -340z"/>
<path d="M24135 52475 c-38 -8 -185 -49 -327 -92 -209 -62 -257 -80 -253 -92
2 -9 154 -518 336 -1131 183 -613 333 -1116 333 -1117 5 -7 631 188 678 211
230 110 350 318 335 580 -7 127 -35 235 -93 353 -81 169 -191 253 -382 290
l-92 18 49 39 c51 40 107 108 134 161 57 113 41 308 -39 483 -66 145 -160 238
-286 282 -82 29 -288 37 -393 15z m291 -283 c44 -22 102 -92 127 -154 8 -20
23 -71 32 -113 40 -176 -16 -313 -160 -395 -61 -34 -254 -95 -265 -84 -7 8
-210 681 -210 697 0 7 109 41 201 62 92 20 223 14 275 -13z m250 -962 c130
-56 242 -291 232 -486 -8 -167 -87 -245 -327 -320 -58 -19 -107 -32 -109 -29
-5 5 -232 767 -232 780 0 10 205 71 265 79 50 6 127 -5 171 -24z"/>
<path d="M35254 52325 c-175 -38 -313 -170 -430 -412 -67 -137 -342 -955 -375
-1113 -25 -125 -30 -316 -10 -400 42 -174 166 -304 356 -375 294 -111 526 -51
690 180 83 115 213 422 190 443 -18 17 -297 104 -304 96 -4 -5 -24 -56 -45
-114 -69 -192 -135 -293 -218 -334 -71 -36 -134 -35 -214 3 -104 49 -144 121
-144 260 0 119 17 179 205 741 162 486 211 602 277 671 50 52 92 69 168 69
113 0 216 -55 257 -138 23 -47 25 -60 20 -135 -3 -48 -16 -119 -32 -172 -45
-144 -53 -130 115 -187 80 -26 150 -46 156 -44 14 5 49 129 69 240 29 168 12
327 -47 439 -74 138 -265 253 -478 287 -83 13 -130 12 -206 -5z"/>
<path d="M22346 51854 c-220 -90 -402 -166 -404 -169 -4 -3 884 -2174 893
-2183 4 -4 808 327 819 338 10 10 -72 229 -89 236 -6 2 -125 -43 -265 -100
-140 -58 -255 -104 -256 -103 -1 1 -70 169 -154 372 -83 204 -154 375 -156
380 -3 6 77 44 176 84 99 41 183 77 185 81 4 6 -80 225 -91 239 -2 2 -87 -30
-189 -72 -183 -75 -186 -76 -195 -54 -4 12 -67 166 -140 341 -97 238 -128 321
-118 327 7 4 124 54 260 109 l247 102 -19 47 c-59 147 -78 186 -91 188 -8 1
-194 -72 -413 -163z"/>
<path d="M36555 51812 c-148 -51 -268 -168 -373 -362 -41 -76 -390 -890 -443
-1033 -39 -104 -69 -259 -69 -349 0 -159 52 -281 162 -383 171 -158 456 -235
649 -175 155 48 293 188 403 407 47 94 396 911 428 1003 56 161 74 363 43 485
-46 177 -224 328 -469 399 -109 32 -252 35 -331 8z m305 -303 c31 -11 78 -37
105 -57 89 -68 112 -152 77 -288 -21 -81 -423 -1040 -493 -1175 -48 -91 -123
-171 -184 -194 -57 -22 -131 -14 -211 24 -78 37 -118 72 -145 127 -19 40 -21
57 -16 127 3 48 16 111 30 152 46 131 457 1088 492 1145 42 69 123 147 162
155 15 4 33 8 38 10 19 7 90 -6 145 -26z"/>
<path d="M41736 51601 l-78 -6 -164 -290 -164 -290 62 -60 c116 -111 183 -167
216 -182 18 -7 35 -20 39 -28 3 -8 14 -15 24 -15 10 0 19 -4 19 -10 0 -5 7
-10 16 -10 8 0 12 -4 9 -10 -4 -6 5 -10 20 -10 14 0 24 -4 21 -9 -3 -4 15 -11
41 -15 56 -7 175 3 167 15 -3 5 2 9 10 9 15 0 38 15 71 48 8 6 17 12 20 12 4
0 19 13 35 30 15 16 30 27 32 24 3 -2 11 2 18 11 7 8 17 15 22 15 10 0 58 46
58 55 0 4 18 24 40 45 22 21 40 43 40 49 0 6 5 11 10 11 6 0 10 11 10 25 0 14
4 25 8 25 13 0 15 117 2 125 -5 3 -10 26 -10 51 0 24 -4 44 -8 44 -5 0 -15 18
-22 40 -7 21 -17 37 -21 34 -5 -3 -9 2 -9 11 0 9 -4 13 -10 10 -5 -3 -10 -1
-10 4 0 6 -7 11 -15 11 -8 0 -17 12 -20 28 -21 94 -82 172 -152 191 -49 14
-226 20 -327 12z"/>
<path d="M17053 51495 c0 -8 4 -12 9 -9 5 3 6 10 3 15 -9 13 -12 11 -12 -6z"/>
<path d="M21285 51339 c-108 -20 -225 -66 -445 -175 -127 -62 -230 -118 -230
-123 0 -12 1027 -2092 1039 -2104 6 -6 277 119 299 137 1 2 -106 222 -238 491
-133 268 -240 489 -238 490 9 8 189 95 197 95 5 0 181 -184 391 -410 210 -225
388 -410 395 -410 20 0 285 133 285 143 0 4 -189 206 -419 449 l-419 442 25
33 c128 168 75 497 -122 753 -127 165 -302 229 -520 189z m158 -317 c158 -85
263 -354 196 -498 -28 -58 -95 -125 -167 -167 -62 -36 -121 -62 -126 -56 -2 2
-76 151 -164 332 -140 284 -158 328 -144 336 9 5 46 21 82 37 138 59 235 64
323 16z"/>
<path d="M37345 50300 c-291 -572 -531 -1046 -533 -1054 -2 -8 140 -86 392
-214 217 -111 398 -202 401 -202 6 0 115 216 115 229 0 5 -110 65 -245 132
-135 68 -245 128 -245 133 0 4 212 423 470 930 259 507 470 927 470 932 0 7
-281 155 -293 154 -1 0 -240 -468 -532 -1040z"/>
<path d="M40987 50838 c-48 -62 -86 -112 -84 -113 1 -1 79 -55 172 -120 94
-65 234 -165 312 -222 78 -57 145 -103 150 -103 5 0 35 26 66 58 55 56 59 62
68 127 5 38 6 72 2 75 -9 8 -572 393 -588 403 -6 3 -50 -44 -98 -105z"/>
<path d="M19978 50693 c-378 -219 -387 -225 -375 -248 73 -135 1174 -2015
1180 -2015 16 0 767 442 767 452 0 14 -120 218 -129 218 -3 0 -114 -63 -246
-139 l-239 -139 -181 312 c-100 171 -193 332 -208 357 l-27 45 163 94 c89 51
167 97 174 102 8 7 -6 39 -50 115 -33 58 -66 107 -72 109 -6 3 -87 -39 -179
-92 -92 -53 -168 -95 -171 -93 -2 2 -85 145 -185 317 -153 263 -181 316 -169
326 8 7 109 68 224 134 116 67 218 127 228 134 16 12 13 21 -44 118 -33 58
-64 108 -67 112 -4 4 -181 -95 -394 -219z"/>
<path d="M38265 49819 c-324 -556 -591 -1016 -593 -1023 -2 -9 708 -431 758
-451 12 -4 31 21 75 97 33 57 60 109 60 116 0 7 -106 75 -235 151 -129 76
-234 142 -233 147 1 5 234 407 519 894 284 487 519 892 521 901 3 11 -35 38
-136 97 -77 45 -142 82 -143 82 -2 0 -268 -455 -593 -1011z"/>
<path d="M39154 49284 c-357 -538 -650 -980 -652 -984 -2 -5 656 -447 735
-494 13 -7 158 198 149 212 -3 5 -106 75 -230 158 -130 86 -224 154 -221 161
2 7 104 163 225 347 l222 335 164 -109 c90 -61 167 -110 171 -110 8 0 143 203
143 214 0 3 -74 55 -165 116 l-165 110 203 305 c111 167 205 305 209 305 4 0
111 -68 238 -151 127 -84 232 -150 234 -148 13 16 128 192 132 204 4 10 -103
86 -356 255 -199 133 -367 243 -374 246 -7 3 -267 -379 -662 -972z"/>
<path d="M19081 50059 c-136 -27 -248 -83 -512 -260 -115 -77 -209 -142 -209
-144 0 -8 1310 -1944 1319 -1949 11 -7 277 172 273 184 -1 6 -134 205 -296
444 -161 238 -296 438 -300 444 -4 6 34 38 88 75 l95 65 432 -355 c238 -195
437 -357 442 -360 9 -5 276 167 277 179 0 4 -206 172 -457 374 -252 202 -466
374 -476 383 -17 16 -16 20 9 76 68 148 31 347 -102 547 -162 243 -356 342
-583 297z m126 -319 c132 -60 274 -285 260 -412 -11 -91 -86 -193 -206 -277
l-59 -41 -35 47 c-18 27 -112 164 -208 306 l-174 258 25 20 c42 33 149 91 193
105 63 19 155 17 204 -6z"/>
<path d="M17792 49228 c-193 -150 -351 -277 -351 -283 -1 -11 1437 -1860 1446
-1860 11 0 702 540 702 548 1 9 -149 207 -156 207 -2 0 -103 -77 -224 -171
-122 -95 -224 -168 -228 -163 -5 5 -113 144 -241 309 -128 165 -239 307 -247
316 -12 14 4 29 141 135 85 65 155 124 155 130 1 12 -146 204 -156 204 -3 0
-75 -54 -160 -121 -85 -66 -157 -118 -159 -116 -3 3 -105 134 -229 292 l-223
288 216 169 c120 93 218 173 220 178 3 7 -91 135 -148 203 -3 4 -164 -115
-358 -265z"/>
<path d="M40795 49390 c-149 -30 -322 -142 -462 -298 -84 -94 -492 -625 -582
-757 -259 -382 -269 -678 -30 -914 109 -108 201 -149 304 -136 41 5 95 23 182
61 6 3 -6 -42 -28 -101 -21 -58 -39 -112 -39 -118 1 -10 143 -125 185 -149 12
-7 80 80 672 848 l63 82 -261 201 -261 201 -79 -102 c-43 -55 -76 -105 -73
-109 3 -5 59 -50 124 -100 66 -51 120 -94 120 -96 0 -15 -163 -203 -222 -257
-143 -131 -252 -161 -370 -103 -72 35 -141 110 -158 172 -28 101 13 238 121
397 100 147 606 792 668 850 91 86 175 130 250 131 77 0 156 -36 226 -106 120
-120 106 -230 -56 -456 -33 -46 -57 -87 -52 -91 63 -56 254 -190 262 -185 14
8 98 133 138 205 74 132 109 294 92 418 -16 112 -66 202 -167 302 -178 174
-378 248 -567 210z"/>
<path d="M41249 47748 c-426 -479 -777 -877 -782 -884 -5 -8 101 -108 323
-306 182 -161 334 -294 338 -296 10 -3 167 177 167 192 0 7 -90 92 -200 189
-110 98 -200 182 -200 188 0 6 121 147 269 314 l269 303 151 -134 151 -135 25
29 c14 16 53 61 88 100 l62 70 -137 123 c-76 67 -144 128 -151 134 -10 9 38
69 234 289 l246 277 27 -24 c14 -13 109 -97 210 -187 l184 -164 50 54 c27 30
66 76 88 101 l39 46 -335 297 c-184 163 -336 296 -338 296 -2 0 -352 -392
-778 -872z"/>
<path d="M17020 48500 c-108 -13 -190 -50 -298 -135 -125 -98 -215 -224 -248
-350 -18 -67 -17 -205 1 -285 21 -87 101 -247 174 -344 82 -109 574 -658 678
-757 292 -276 536 -343 786 -218 118 60 212 145 248 224 23 50 25 181 5 249
-17 56 -23 57 103 -17 l95 -56 90 82 c50 45 91 85 91 89 0 12 -779 878 -788
875 -4 -1 -115 -98 -247 -216 l-239 -214 29 -36 c16 -20 56 -64 87 -99 l58
-63 119 106 118 106 25 -23 c49 -45 179 -214 216 -279 90 -162 81 -288 -30
-389 -131 -121 -277 -104 -464 54 -69 58 -582 621 -722 791 -68 83 -121 183
-137 260 -9 45 -9 65 4 109 38 131 195 250 304 232 75 -12 190 -91 280 -193
31 -35 60 -63 65 -63 11 0 247 210 247 220 0 14 -168 168 -235 215 -134 96
-282 141 -415 125z"/>
<path d="M28965 48254 c-16 -2 -86 -9 -155 -15 -282 -25 -681 -108 -995 -209
-220 -71 -525 -197 -783 -325 -306 -151 -435 -228 -582 -346 -151 -121 -205
-155 -455 -289 -336 -179 -468 -276 -578 -423 -60 -81 -777 -1126 -783 -1142
-3 -6 88 -82 201 -169 l205 -158 0 -312 0 -311 -181 -348 -182 -347 -37 0
c-50 0 -165 -30 -321 -84 -286 -100 -415 -98 -593 9 -32 19 -60 35 -62 35 -2
0 -4 -130 -4 -288 l0 -289 56 -89 c216 -345 518 -657 805 -834 51 -32 73 -61
314 -412 l260 -378 35 5 c148 22 227 26 317 15 284 -34 478 -156 857 -538
l129 -130 64 132 c69 146 86 206 103 371 6 61 33 241 60 400 66 395 74 476 67
717 -6 247 -22 340 -119 718 -113 441 -137 548 -152 677 -16 142 17 82 -329
617 -243 376 -384 600 -414 661 -30 59 -135 327 -130 332 6 5 182 -184 268
-287 151 -181 501 -672 581 -815 92 -164 166 -349 252 -632 73 -240 83 -297
95 -508 20 -337 29 -382 111 -555 66 -137 90 -227 90 -335 0 -57 -8 -94 -45
-200 -75 -214 -88 -280 -130 -635 -31 -268 -52 -375 -110 -575 -63 -216 -111
-403 -230 -900 -113 -471 -180 -724 -252 -955 -68 -215 -88 -296 -122 -498
-18 -100 -43 -222 -58 -270 -14 -48 -36 -122 -49 -166 l-24 -78 -5 -1082 c-5
-1321 5 -1611 71 -2061 74 -503 81 -602 94 -1295 11 -609 19 -747 61 -1035 37
-263 41 -351 40 -917 -2 -706 9 -860 84 -1173 45 -191 55 -270 55 -454 0 -225
-17 -347 -129 -922 -17 -86 -40 -221 -51 -299 -28 -189 -43 -257 -85 -389 -91
-280 -184 -465 -453 -896 -256 -411 -379 -582 -566 -789 -93 -103 -286 -272
-333 -292 -20 -9 -70 -14 -129 -14 l-97 0 149 153 c530 543 926 1188 1227
1997 61 165 67 190 106 425 70 422 71 444 71 1255 0 901 -12 1109 -90 1501
-55 279 -62 393 -65 1054 -2 655 -6 720 -65 1017 -47 243 -54 337 -44 653 13
401 11 916 -4 1080 -7 77 -24 250 -37 385 -64 643 -67 682 -66 923 l1 237
-388 0 -387 1 -328 322 -328 322 -145 275 c-168 317 -219 427 -262 560 -17 52
-62 192 -100 310 -91 280 -106 353 -106 510 1 166 31 296 184 775 33 105 60
196 60 203 0 16 -303 443 -406 574 -38 48 -85 96 -105 107 -34 19 -246 111
-257 111 -3 0 -1 -100 4 -222 5 -123 8 -293 8 -378 -2 -150 -4 -161 -48 -333
-26 -99 -76 -321 -111 -495 -35 -175 -80 -381 -99 -460 -43 -174 -70 -349 -91
-592 -27 -315 -45 -458 -82 -655 -74 -401 -75 -410 -78 -700 -2 -284 -7 -327
-67 -560 -61 -240 -60 -231 -68 -805 -8 -597 -11 -631 -80 -840 l-38 -115 -5
-380 c-8 -623 -62 -1124 -213 -1980 -115 -648 -197 -989 -399 -1666 -124 -415
-225 -840 -370 -1559 -76 -378 -80 -402 -105 -729 -30 -372 -42 -460 -100
-686 -58 -227 -68 -344 -75 -910 -3 -203 -9 -408 -15 -455 -10 -82 -9 -86 12
-100 68 -46 81 -21 -149 -290 -865 -1013 -1443 -1727 -1579 -1951 -34 -57 -37
-59 -50 -41 -13 19 -19 19 -296 -38 -499 -103 -758 -162 -1828 -420 -1862
-449 -2576 -589 -3565 -700 -1494 -166 -3211 -203 -6190 -130 -1735 42 -3132
130 -4455 281 -424 48 -1046 132 -1056 142 -3 3 98 193 224 423 126 231 665
1216 1197 2189 4550 8321 7218 13185 7310 13324 31 46 56 58 142 71 131 18
303 -6 801 -111 128 -27 308 -58 400 -69 393 -46 1039 -96 1797 -140 193 -11
391 -22 440 -25 573 -35 1589 -59 2173 -51 453 5 482 5 482 -12 -1 -9 -8 -80
-16 -157 -21 -197 -30 -753 -15 -941 42 -536 164 -958 362 -1254 391 -585
1055 -642 1794 -156 866 570 1739 1794 2327 3260 532 1327 765 2701 633 3726
-19 143 -68 381 -100 485 -13 44 -23 80 -22 81 2 2 430 -589 449 -619 5 -8 18
-1 40 20 36 34 90 63 210 112 107 45 164 85 196 140 24 40 27 56 26 127 l0 81
-249 262 c-136 143 -250 261 -252 261 -2 0 -105 -58 -229 -130 -124 -71 -229
-130 -233 -130 -4 0 -18 26 -30 58 -13 31 -39 85 -57 119 -19 34 -34 63 -34
66 0 2 26 6 58 9 101 7 160 44 305 191 76 76 126 135 123 143 -6 16 -494 632
-507 640 -7 4 -347 -279 -458 -382 -11 -10 -3 -28 55 -110 54 -79 62 -94 38
-77 -76 54 -214 108 -339 134 -88 18 -303 16 -410 -5 -433 -84 -891 -375
-1375 -873 -490 -503 -928 -1146 -1324 -1943 -387 -778 -667 -1572 -839 -2379
-33 -152 -34 -155 -63 -164 -44 -13 -1492 -12 -1884 1 -1716 61 -2986 161
-3630 287 -459 90 -634 111 -820 102 -244 -13 -387 -84 -493 -245 -165 -251
-5158 -9312 -7214 -13092 -1331 -2446 -1783 -3302 -1783 -3377 0 -26 96 -154
206 -277 199 -221 463 -488 1780 -1801 1105 -1101 1315 -1314 1314 -1337 0
-38 -60 -148 -178 -325 -165 -249 -195 -333 -194 -533 1 -172 46 -313 147
-455 49 -69 148 -166 218 -214 75 -51 208 -110 315 -139 l97 -26 3100 4 c4370
7 12142 6 12149 -1 4 -3 24 -77 47 -165 103 -409 270 -836 508 -1299 106 -207
109 -215 85 -215 -23 0 -25 -3 -20 -28 11 -51 26 -326 26 -477 0 -318 25 -555
80 -774 39 -156 50 -272 50 -515 0 -331 24 -490 97 -636 l38 -75 45 -3 c49 -3
92 -20 84 -34 -3 -4 2 -8 11 -8 9 0 13 -4 10 -10 -3 -5 1 -10 9 -10 9 0 16 -4
16 -10 0 -5 9 -10 21 -10 11 0 17 -4 14 -10 -4 -6 12 -10 40 -10 28 0 44 -4
40 -10 -4 -6 7 -10 24 -10 17 0 31 5 31 10 0 6 18 10 39 10 22 0 43 5 46 10 3
6 15 10 26 10 11 0 17 4 14 10 -3 5 -1 10 5 10 6 0 8 4 5 10 -3 5 -1 10 5 10
6 0 8 5 5 10 -3 6 -1 10 4 10 7 0 11 35 11 95 0 57 4 95 10 95 6 0 10 7 10 16
0 8 4 13 8 10 5 -3 15 4 22 15 8 10 25 19 38 19 13 0 20 4 17 10 -4 7 57 10
174 10 114 0 181 4 181 10 0 6 18 10 40 10 22 0 40 5 40 10 0 6 8 10 18 10 19
0 89 69 85 82 -4 11 56 40 67 33 6 -3 10 -2 10 2 0 12 38 14 45 3 3 -5 -8 -19
-24 -30 l-29 -22 73 -151 c40 -84 112 -251 160 -372 47 -121 122 -312 167
-425 136 -346 278 -623 410 -802 32 -43 58 -80 58 -83 0 -8 64 -63 107 -92 21
-13 62 -48 91 -76 54 -52 202 -221 202 -230 0 -3 38 -44 84 -91 90 -91 153
-135 256 -181 36 -15 148 -70 250 -120 238 -119 314 -145 564 -195 356 -70
647 -114 1326 -202 526 -67 617 -61 1085 70 116 33 255 69 310 81 55 12 111
25 124 29 21 6 43 57 178 412 225 594 223 588 238 594 12 4 12 0 4 -22 -33
-87 -344 -906 -361 -949 -17 -48 -23 -53 -56 -58 -73 -13 -280 -64 -457 -115
-447 -127 -538 -131 -1155 -51 -816 105 -1346 195 -1539 263 -47 16 -185 78
-306 138 -121 59 -231 111 -245 115 -24 7 -23 6 7 -24 18 -17 39 -31 46 -31 7
0 19 -9 27 -20 15 -21 57 -29 44 -8 -4 7 -3 8 5 4 6 -4 9 -12 6 -17 -4 -5 2
-12 12 -16 10 -4 20 -10 23 -14 3 -4 14 -9 25 -11 11 -1 28 -12 38 -22 12 -14
17 -15 17 -5 0 12 2 12 9 0 5 -7 14 -10 20 -7 6 4 11 0 11 -8 0 -9 8 -16 18
-16 10 0 28 -9 40 -20 13 -13 35 -20 59 -20 28 0 34 -3 23 -10 -13 -8 -12 -10
3 -10 9 0 17 -5 17 -11 0 -6 7 -8 16 -5 8 3 12 2 9 -4 -3 -6 3 -10 15 -10 12
0 19 -4 16 -8 -3 -5 17 -15 45 -22 28 -8 52 -18 55 -22 3 -4 14 -8 25 -8 10 0
19 -4 19 -10 0 -5 14 -10 30 -10 17 0 30 -4 30 -10 0 -5 11 -10 24 -10 14 0
28 -4 31 -10 3 -6 24 -10 46 -10 24 0 38 -4 34 -10 -4 -6 13 -10 44 -10 27 0
53 -5 56 -10 3 -6 25 -10 49 -10 23 0 46 -4 51 -9 6 -5 28 -12 50 -15 103 -14
136 -22 135 -31 -1 -5 9 -13 22 -17 13 -3 19 -6 15 -7 -5 -1 -2 -8 6 -16 8 -8
122 -207 253 -442 130 -235 307 -549 392 -698 85 -148 228 -412 317 -585 170
-331 231 -440 325 -580 59 -87 159 -217 201 -261 13 -14 50 -53 81 -87 32 -34
60 -62 62 -62 3 0 24 -20 47 -45 23 -25 44 -43 47 -40 3 2 12 -3 21 -13 25
-27 140 -112 152 -112 5 0 7 -5 4 -11 -4 -6 0 -9 11 -7 11 2 18 -2 16 -9 -1
-7 2 -13 8 -13 5 0 20 -10 32 -23 13 -13 38 -30 56 -38 17 -7 32 -17 32 -21 0
-5 9 -8 20 -8 11 0 20 -4 20 -10 0 -5 10 -10 23 -10 13 0 27 -4 32 -8 6 -5 29
-14 51 -20 51 -15 244 -16 244 -2 0 6 8 10 17 10 24 0 83 23 83 32 0 4 9 8 20
8 11 0 20 5 20 10 0 6 11 10 25 10 14 0 25 5 25 10 0 6 7 10 16 10 8 0 12 5 9
10 -3 6 0 10 7 10 7 0 22 7 33 16 17 13 18 16 5 24 -13 8 -12 10 3 10 19 0 87
63 87 80 0 6 5 8 10 5 6 -3 10 1 10 9 0 9 5 16 10 16 6 0 10 6 10 14 0 8 7 16
15 20 8 3 15 15 15 26 0 11 5 20 10 20 6 0 10 25 10 55 0 30 5 55 10 55 6 0
10 30 10 70 0 40 -4 70 -10 70 -6 0 -10 32 -10 75 0 43 -4 75 -10 75 -5 0 -10
16 -10 35 0 22 -6 38 -15 41 -8 4 -15 17 -15 30 0 13 -4 24 -10 24 -5 0 -10 8
-10 19 0 27 -25 83 -33 74 -4 -3 -7 6 -7 21 0 16 -4 25 -10 21 -5 -3 -10 3
-10 14 0 12 -4 21 -9 21 -5 0 -12 8 -16 19 -8 26 -41 62 -49 54 -3 -3 -6 7 -6
23 0 17 -7 39 -16 50 -8 10 -12 12 -8 4 9 -20 -21 13 -71 75 -44 56 -203 215
-314 315 -40 36 -106 97 -147 135 -42 39 -88 81 -103 95 -15 14 -42 44 -61 66
-19 23 -97 112 -172 197 -76 86 -138 160 -138 166 0 5 -5 13 -12 17 -7 4 -8 3
-4 -4 15 -25 -1 -11 -24 21 -19 26 -20 29 -4 17 18 -14 18 -14 5 3 -7 9 -18
17 -23 17 -5 0 -15 6 -21 13 -23 24 -82 94 -117 138 -19 24 -77 92 -128 152
-50 60 -89 114 -85 119 3 7 1 8 -5 4 -7 -4 -12 -1 -12 9 0 8 -9 23 -20 32 -36
31 -25 121 19 150 22 15 52 17 211 18 102 1 228 7 280 14 52 7 116 15 143 18
26 3 47 9 47 14 0 5 18 9 40 9 22 0 40 4 40 9 0 5 18 12 40 15 22 3 58 9 80
12 22 3 40 10 40 15 0 5 16 9 35 9 19 0 35 5 35 10 0 6 16 10 35 10 19 0 35 5
35 10 0 6 20 10 45 10 25 0 45 5 45 10 0 6 15 10 34 10 36 0 56 14 34 23 -7 3
4 6 25 6 23 1 36 5 32 11 -3 6 3 10 14 10 12 0 21 5 21 10 0 6 6 10 13 10 7 0
23 9 35 20 12 11 26 20 32 20 6 0 9 4 5 9 -3 5 0 16 7 23 20 22 38 56 38 73 0
9 5 13 10 10 6 -4 10 7 10 24 0 17 5 31 10 31 6 0 10 16 10 35 0 19 5 35 10
35 6 0 10 9 10 19 0 11 5 23 10 26 6 3 10 15 10 26 0 10 5 19 10 19 6 0 10 11
10 25 0 14 5 25 10 25 6 0 10 18 10 40 0 22 5 40 10 40 6 0 10 9 10 19 0 11 5
23 10 26 6 3 10 15 10 26 0 10 5 19 10 19 6 0 10 14 10 30 0 19 5 29 13 28 7
-2 13 10 15 30 2 17 7 32 13 32 5 0 9 11 9 25 0 14 5 25 10 25 6 0 10 11 10
25 0 14 5 25 10 25 6 0 10 9 10 20 0 11 5 20 10 20 6 0 10 7 10 16 0 17 36 54
52 54 4 0 8 9 8 20 0 18 11 25 33 21 5 -1 6 3 2 9 -3 5 1 10 10 10 9 0 13 5
10 10 -4 6 6 10 24 10 16 0 33 5 36 10 3 6 24 10 46 10 21 0 39 5 39 10 0 6
25 10 56 10 34 0 53 4 49 10 -4 6 13 10 44 10 27 0 53 5 56 10 3 6 21 10 40
10 19 0 37 4 40 10 3 5 21 10 40 10 18 0 35 4 37 9 2 6 22 11 45 12 23 2 40 6
37 11 -3 4 11 8 30 8 19 0 38 5 41 10 3 6 19 10 36 10 16 0 29 5 29 10 0 6 20
10 45 10 35 0 43 3 39 15 -5 11 1 15 24 15 17 0 34 5 37 10 3 6 19 10 36 10
16 0 29 5 29 10 0 6 11 10 25 10 14 0 25 5 25 10 0 6 18 10 39 10 22 0 43 4
46 10 3 5 22 10 41 10 19 0 34 5 34 10 0 6 18 10 40 10 22 0 40 5 40 10 0 6
37 10 90 10 53 0 90 -4 90 -10 0 -5 14 -10 30 -10 17 0 30 -4 30 -10 0 -5 11
-10 25 -10 14 0 25 -4 25 -10 0 -5 11 -10 25 -10 14 0 25 -4 25 -10 0 -5 9
-10 19 -10 11 0 23 -4 26 -10 3 -5 17 -10 31 -10 13 0 24 -4 24 -10 0 -5 14
-10 31 -10 24 0 30 -4 25 -15 -4 -11 2 -15 24 -15 16 0 32 -4 35 -10 3 -6 15
-10 26 -10 27 0 99 -23 99 -32 0 -5 16 -8 35 -8 19 0 35 -4 35 -9 0 -8 22 -15
98 -28 17 -3 32 -9 32 -14 0 -5 14 -9 30 -9 17 0 30 -4 30 -10 0 -5 18 -10 40
-10 22 0 40 -4 40 -10 0 -5 23 -10 50 -10 28 0 50 -4 50 -10 0 -5 20 -10 44
-10 24 0 46 -5 48 -11 2 -6 15 -12 30 -12 14 -1 24 -5 21 -10 -2 -4 1 -7 6 -7
6 0 11 6 11 13 0 8 4 7 11 -3 13 -18 4 17 -17 68 -11 26 -11 32 0 32 12 0 69
-145 314 -794 42 -109 62 -150 77 -156 11 -4 67 -18 124 -30 57 -12 199 -48
315 -81 476 -134 554 -139 1126 -65 643 82 991 136 1335 206 204 41 272 66
502 179 109 54 227 111 263 126 136 60 218 130 386 330 108 129 202 222 261
259 23 14 68 58 100 98 32 40 61 74 66 76 4 2 7 8 7 12 0 5 27 51 61 102 33
51 100 174 149 273 80 163 128 277 345 833 37 95 75 177 84 182 11 5 -14 -69
-75 -223 -50 -128 -123 -315 -163 -417 -182 -467 -421 -868 -576 -968 -61 -39
-143 -124 -297 -307 -98 -117 -199 -205 -277 -241 -31 -15 -155 -75 -276 -134
-121 -60 -259 -122 -307 -139 -140 -49 -640 -141 -1108 -205 -1066 -146 -1089
-146 -1620 4 -118 34 -230 62 -247 63 -18 1 -33 5 -33 10 0 4 -12 7 -27 6 -28
0 -28 -1 -5 -11 12 -6 22 -17 22 -25 0 -7 10 -13 23 -13 18 0 19 -2 7 -10 -12
-8 -11 -10 8 -10 12 0 22 -4 22 -10 0 -5 9 -10 20 -10 11 0 20 -4 20 -10 0 -5
16 -10 35 -10 26 0 33 -3 29 -15 -5 -12 2 -15 30 -15 20 0 36 -4 36 -10 0 -5
20 -10 45 -10 25 0 45 -4 45 -10 0 -5 16 -10 35 -10 19 0 35 -4 35 -10 0 -5
13 -10 29 -10 17 0 33 -4 36 -10 3 -5 26 -10 51 -10 24 0 44 -4 44 -10 0 -5
16 -10 35 -10 19 0 35 -4 35 -10 0 -5 18 -10 39 -10 22 0 43 -4 46 -10 3 -5
26 -10 50 -10 24 0 46 -4 49 -8 7 -11 166 -26 276 -25 132 0 320 15 320 24 0
5 36 9 80 9 47 0 80 4 80 10 0 6 33 10 80 10 47 0 80 4 80 10 0 6 35 10 86 10
47 0 83 4 80 8 -3 5 1 9 9 9 8 0 12 -4 9 -8 -2 -4 0 -10 5 -13 5 -3 11 1 15 9
3 8 11 15 18 14 10 0 10 -2 0 -6 -6 -2 -10 -9 -6 -14 5 -9 -117 -166 -261
-334 -159 -186 -418 -454 -640 -662 -427 -401 -599 -587 -746 -808 -73 -109
-189 -337 -219 -432 l-23 -69 48 -85 c26 -46 72 -119 101 -162 30 -43 54 -82
54 -87 0 -5 4 -10 9 -12 5 -1 33 -30 62 -63 28 -33 68 -72 88 -87 20 -15 41
-32 47 -37 18 -15 59 -35 67 -33 4 1 7 -5 7 -13 0 -9 10 -15 23 -16 12 0 17
-3 10 -6 -10 -3 -10 -7 0 -18 7 -7 15 -11 18 -9 4 2 12 -3 19 -11 7 -8 19 -15
27 -15 8 0 11 -4 8 -10 -3 -5 3 -10 14 -10 12 0 21 -4 21 -9 0 -34 254 -59
355 -34 62 15 85 25 85 34 0 5 9 9 20 9 12 0 30 9 42 20 12 11 30 20 40 20 11
0 16 5 13 10 -3 6 1 10 9 10 9 0 16 5 16 10 0 6 3 9 8 9 20 -3 42 2 42 10 0 5
-8 12 -17 14 -11 3 -7 5 10 6 16 0 26 5 22 11 -3 6 -1 10 5 10 6 0 42 31 79
69 38 39 72 67 75 64 3 -4 6 -1 6 6 0 15 25 41 39 41 6 0 11 5 11 10 0 6 7 10
15 10 9 0 12 6 9 15 -4 10 0 15 12 15 9 0 15 3 11 6 -3 3 33 44 79 90 47 47
82 89 79 94 -4 6 1 10 10 10 9 0 13 5 10 10 -3 5 1 10 9 10 9 0 16 9 16 21 0
11 5 17 10 14 6 -3 10 3 10 14 0 12 5 21 10 21 6 0 10 12 10 26 0 14 4 23 10
19 6 -4 10 5 10 19 0 14 5 26 10 26 6 0 10 9 10 19 0 11 5 23 10 26 6 3 10 19
10 35 0 16 4 32 10 35 6 3 10 17 10 31 0 13 5 24 10 24 6 0 10 11 10 25 0 14
5 25 10 25 6 0 10 9 10 20 0 11 5 20 10 20 6 0 10 11 10 25 0 14 4 25 8 25 5
0 17 26 27 58 14 46 19 53 26 37 6 -16 8 -14 8 13 1 19 5 31 11 27 6 -4 10 5
10 19 0 14 4 26 8 26 5 0 14 16 22 35 8 19 17 35 22 35 4 0 8 10 8 23 0 18 2
19 10 7 7 -11 10 -7 10 18 0 17 5 32 10 32 6 0 10 9 10 20 0 11 5 20 10 20 6
0 10 7 10 15 0 8 4 15 8 15 5 0 14 16 22 35 8 19 17 35 22 35 4 0 8 9 8 21 0
11 5 17 10 14 6 -3 10 1 10 9 0 9 7 16 15 16 9 0 15 9 15 25 0 14 5 25 10 25
6 0 10 9 10 21 0 11 5 17 10 14 6 -3 10 3 10 14 0 12 5 21 10 21 6 0 10 6 10
14 0 7 7 19 15 26 8 7 12 16 9 21 -3 5 0 9 5 9 6 0 11 9 11 21 0 11 5 17 10
14 6 -3 10 0 10 9 0 8 6 17 13 19 9 4 9 7 0 14 -9 7 -8 12 7 23 11 8 20 20 20
27 0 7 5 13 10 13 6 0 10 7 10 15 0 8 5 15 10 15 6 0 10 9 10 20 0 11 5 20 10
20 6 0 10 7 10 15 0 9 6 12 15 9 10 -4 15 0 15 15 0 12 9 31 20 43 11 12 20
29 20 38 0 9 9 26 20 38 11 12 20 28 20 37 0 8 4 15 8 15 5 0 15 18 22 40 7
22 17 40 22 40 4 0 8 9 8 20 0 11 5 20 10 20 6 0 10 11 10 25 0 14 3 25 8 25
8 0 32 49 32 67 0 7 5 13 10 13 6 0 10 9 10 20 0 11 6 19 12 18 7 -2 14 7 16
19 2 13 8 23 13 23 5 0 9 9 9 21 0 11 5 17 10 14 6 -4 10 6 10 22 0 15 9 39
20 53 11 14 20 33 20 43 0 9 5 17 10 17 6 0 10 9 10 21 0 11 5 17 10 14 6 -3
10 4 10 18 0 13 9 33 20 45 11 12 20 26 20 32 0 5 5 10 10 10 6 0 10 14 10 30
0 17 5 30 10 30 6 0 10 7 10 15 0 8 5 15 10 15 6 0 10 9 10 21 0 15 5 19 15
15 11 -4 15 1 15 19 0 14 5 25 10 25 6 0 10 7 10 15 0 8 5 15 10 15 6 0 10 5
10 11 0 7 8 19 18 28 9 9 17 22 18 29 3 39 5 45 10 39 8 -7 53 36 47 46 -2 4
2 7 9 7 8 0 20 9 28 20 8 11 23 20 33 20 10 0 15 5 12 10 -4 6 5 10 19 10 14
0 26 5 26 10 0 6 7 10 15 10 8 0 15 5 15 10 0 6 9 10 20 10 11 0 20 5 20 10 0
6 9 10 20 10 11 0 20 5 20 10 0 6 15 10 33 10 24 0 28 3 17 10 -13 8 -11 11 8
16 12 4 22 9 22 13 0 4 10 8 22 8 13 1 24 7 26 13 2 5 12 10 22 10 10 0 22 4
25 10 3 6 15 10 26 10 10 0 19 5 19 10 0 6 7 10 15 10 8 0 15 5 15 10 0 6 6
10 13 10 18 0 67 24 67 33 0 4 10 7 23 7 12 0 29 9 37 20 8 11 20 20 28 20 13
0 62 43 62 55 0 10 134 140 142 137 5 -1 8 7 8 18 0 13 7 20 20 20 14 0 20 7
20 21 0 11 5 17 10 14 6 -3 10 -1 10 4 0 13 8 22 90 108 35 38 60 58 63 50 3
-6 6 -2 6 11 1 12 7 22 16 22 8 0 15 5 15 10 0 6 7 10 16 10 22 0 48 27 31 33
-7 3 -4 6 6 6 10 1 26 8 34 17 14 13 14 17 2 25 -11 7 -9 9 9 9 15 0 22 6 22
20 0 11 3 19 8 19 20 -3 32 2 32 15 0 7 14 27 30 45 17 17 25 31 19 31 -6 0
-4 7 5 15 8 8 19 15 25 15 6 0 11 7 11 15 0 8 4 15 9 15 5 0 15 16 22 35 7 19
17 35 21 35 4 0 8 7 8 15 0 8 5 15 10 15 6 0 10 9 10 20 0 11 5 20 10 20 6 0
10 7 10 15 0 8 5 15 10 15 6 0 10 7 10 15 0 8 5 15 10 15 6 0 10 9 10 19 0 11
5 23 10 26 6 3 10 17 10 31 0 13 5 24 10 24 6 0 10 9 10 19 0 11 5 23 10 26 6
3 10 15 10 26 0 11 5 17 10 14 6 -3 10 5 10 18 0 14 7 27 15 31 8 3 15 15 15
26 0 12 5 18 10 15 6 -4 10 5 10 19 0 14 5 26 10 26 6 0 10 11 10 24 0 14 5
28 10 31 6 3 10 15 10 26 0 10 5 19 10 19 6 0 10 11 10 25 0 14 5 25 10 25 6
0 10 14 10 31 0 17 4 28 10 24 6 -3 10 5 10 19 0 14 5 28 10 31 6 3 10 17 10
30 0 13 5 27 10 30 6 3 10 15 10 26 0 10 5 19 10 19 6 0 10 14 10 31 0 17 4
28 10 24 6 -3 10 5 10 19 0 14 5 28 10 31 6 3 10 20 10 37 0 23 4 29 15 24 11
-4 15 2 15 24 0 17 5 30 10 30 6 0 10 11 10 25 0 14 5 25 10 25 6 0 10 11 10
25 0 14 5 25 10 25 6 0 10 7 10 16 0 8 7 22 15 31 8 8 13 19 10 24 -4 5 -1 9
4 9 6 0 11 7 11 15 0 8 4 15 8 15 5 0 15 12 23 27 16 31 66 83 80 83 5 0 9 8
9 18 0 14 2 15 10 2 6 -10 10 -11 10 -2 0 6 5 12 10 12 6 0 22 11 36 25 14 14
31 22 37 19 7 -4 9 -4 5 1 -8 9 15 35 31 35 6 0 11 5 11 11 0 6 7 17 15 25 12
12 15 12 16 2 0 -7 5 -3 11 10 6 12 16 22 22 22 7 0 18 9 26 20 8 11 20 20 27
20 7 0 13 5 13 10 0 6 8 10 18 10 10 0 24 9 32 20 8 11 20 20 28 20 7 0 22 9
34 20 12 11 36 20 52 21 27 0 28 2 11 10 -20 9 2 8 178 -7 42 -3 77 -10 77
-15 0 -5 43 -9 95 -9 57 0 95 -4 95 -10 0 -6 28 -10 65 -10 l65 0 0 -130 0
-130 78 0 c63 0 83 -4 100 -19 12 -10 22 -25 22 -32 0 -15 68 -53 114 -64 51
-11 172 5 195 26 11 10 28 19 38 19 13 0 14 3 6 8 -9 6 -7 12 7 22 11 8 20 20
20 27 0 7 5 13 10 13 6 0 10 11 10 25 0 14 4 25 8 25 9 0 32 80 32 115 0 13 5
27 10 30 6 3 10 28 10 56 0 27 5 49 10 49 6 0 10 28 10 65 0 36 4 65 9 65 13
0 20 150 27 568 5 305 10 372 27 330 3 -7 6 15 6 50 1 34 5 62 10 62 10 0 20
60 27 173 3 43 10 75 15 72 5 -4 9 15 9 41 0 26 3 44 7 41 7 -8 33 58 33 86 0
9 5 17 10 17 6 0 10 14 10 30 0 17 5 30 10 30 6 0 10 18 10 39 0 22 5 43 10
46 6 3 10 34 11 68 0 44 3 56 9 42 7 -17 9 -15 9 13 1 18 8 46 16 62 9 17 16
33 17 37 1 5 12 16 25 27 14 10 22 25 19 32 -3 8 -2 13 2 13 4 -1 14 -1 22 0
13 1 13 2 0 11 -10 7 -12 12 -4 18 6 4 14 17 18 30 4 12 14 22 22 22 15 0 19
15 7 23 -5 2 -2 2 5 1 15 -4 35 43 28 63 -3 8 -2 12 3 9 14 -9 44 32 37 50 -5
12 -2 15 10 10 14 -5 15 -4 4 9 -10 12 -10 15 4 15 9 0 16 7 16 15 0 8 -5 15
-12 15 -6 0 -8 3 -4 7 4 5 13 8 19 8 7 0 12 12 12 27 -1 15 2 25 6 22 4 -2 9
14 13 36 3 22 11 40 16 40 7 0 7 -7 0 -20 -6 -11 -7 -20 -1 -20 11 0 21 24 22
53 0 21 1 21 9 2 6 -14 9 -15 9 -4 1 8 -5 21 -11 27 -10 10 -10 15 2 22 8 5
11 10 5 10 -5 0 -5 4 2 8 6 4 14 19 17 34 2 14 9 35 15 46 6 11 7 22 4 26 -3
3 -2 6 4 6 5 0 10 6 10 13 0 6 9 32 21 57 11 25 24 58 27 73 4 15 11 27 16 27
5 0 8 3 7 8 -7 24 139 343 247 540 31 56 53 102 48 102 -9 0 -24 -25 -106
-180 -33 -63 -66 -118 -71 -122 -6 -4 -11 -11 -12 -15 -3 -25 -27 -72 -39 -77
-15 -5 -10 18 8 42 8 10 7 16 -4 24 -11 8 -10 9 4 4 15 -5 17 -2 12 14 -3 11
-1 28 5 37 11 17 11 17 6 1 -3 -10 -1 -18 4 -18 6 0 10 15 10 34 0 19 5 36 10
38 6 2 12 13 15 26 2 12 7 27 10 32 3 6 1 10 -4 10 -6 0 -2 16 9 35 11 20 20
51 20 70 0 19 5 35 10 35 6 0 10 13 10 29 0 17 5 33 10 36 6 3 10 21 10 40 0
19 4 37 10 40 6 3 10 22 10 41 0 19 5 34 10 34 6 0 10 18 10 40 0 22 5 40 10
40 6 0 10 15 10 34 0 18 7 50 15 70 8 20 12 36 9 36 -4 0 -1 7 6 15 11 13 446
15 3804 15 2085 0 5447 -5 7472 -10 2179 -6 3736 -6 3815 -1 114 8 152 15 246
46 248 82 428 234 533 450 61 127 75 189 74 350 0 127 -2 148 -27 219 -32 92
-49 121 -180 321 -90 137 -167 277 -167 303 0 22 365 392 1469 1489 1396 1389
1686 1688 1798 1857 l45 68 -32 77 c-123 295 -1307 2489 -3628 6721 -1988
3625 -5092 9249 -5303 9607 -68 115 -152 202 -233 242 -107 53 -180 65 -376
65 -204 0 -298 -12 -691 -89 -697 -136 -1895 -233 -3684 -296 -427 -16 -1640
-16 -2000 -1 -330 14 -772 39 -832 48 -42 5 -43 6 -44 42 -1 33 -2 34 -9 12
-6 -23 -8 -22 -14 15 -4 22 -9 51 -12 65 -3 14 -8 41 -10 60 -3 19 -9 44 -14
55 -10 23 -20 65 -27 117 -3 21 -9 35 -14 32 -5 -3 -9 15 -9 40 0 25 -4 46 -9
46 -5 0 -12 16 -15 35 -3 19 -9 51 -12 70 -3 19 -10 35 -15 35 -5 0 -9 18 -9
40 0 22 -4 40 -10 40 -5 0 -10 14 -10 30 0 17 -4 30 -10 30 -5 0 -10 13 -10
29 0 17 -4 33 -10 36 -5 3 -10 19 -10 36 0 16 -4 29 -10 29 -5 0 -10 18 -10
40 0 27 -4 39 -12 37 -8 -1 -14 10 -16 26 -2 15 -7 27 -12 27 -4 0 -10 14 -14
30 -3 17 -9 44 -12 60 -4 17 -10 30 -15 30 -5 0 -9 13 -9 29 0 17 -4 33 -10
36 -5 3 -10 21 -10 38 0 24 -3 28 -10 17 -7 -11 -10 -6 -10 22 0 20 -4 40 -10
43 -5 3 -10 15 -10 26 0 10 -4 19 -10 19 -5 0 -10 7 -10 15 0 24 -24 95 -32
95 -5 0 -8 14 -8 30 0 17 -4 30 -10 30 -5 0 -10 7 -10 15 0 8 -4 23 -9 33 -5
9 -12 25 -15 35 -3 10 -10 15 -16 12 -6 -4 -10 8 -10 29 0 19 -5 36 -10 38 -6
2 -12 13 -13 26 0 12 -5 22 -9 22 -4 0 -8 14 -8 30 0 17 -4 30 -10 30 -5 0
-10 7 -10 15 0 8 -4 15 -10 15 -5 0 -10 6 -10 14 0 7 -7 26 -14 42 -8 15 -13
31 -10 36 3 4 0 8 -5 8 -6 0 -11 9 -11 20 0 11 -4 20 -10 20 -5 0 -10 11 -10
25 0 14 -4 25 -10 25 -5 0 -10 9 -10 20 0 11 -4 20 -10 20 -5 0 -10 11 -10 24
0 14 -7 31 -15 39 -8 8 -11 17 -8 21 4 3 1 6 -5 6 -7 0 -12 11 -12 25 0 16 -6
25 -15 25 -9 0 -15 9 -15 25 0 14 -4 25 -9 25 -4 0 -19 25 -32 55 -13 30 -27
55 -31 55 -5 0 -8 6 -8 14 0 8 -9 31 -19 53 -11 21 -25 53 -33 71 -7 17 -16
32 -20 32 -5 0 -8 9 -8 20 0 11 -4 20 -10 20 -5 0 -10 9 -10 20 0 11 -4 20
-10 20 -5 0 -10 7 -10 15 0 8 -4 15 -10 15 -5 0 -10 13 -10 30 0 22 -4 28 -15
24 -10 -4 -15 0 -15 11 0 9 -4 13 -10 10 -6 -4 -10 7 -10 25 0 18 -4 29 -10
25 -5 -3 -10 3 -10 15 0 12 -4 18 -10 15 -5 -3 -10 1 -10 10 0 9 -9 25 -20 37
-11 12 -20 30 -20 39 0 10 -6 20 -12 22 -10 4 -10 8 -2 14 9 6 8 11 -2 21 -8
7 -14 9 -14 5 -1 -4 -9 10 -20 32 -10 22 -16 43 -14 47 3 5 -1 8 -9 8 -8 0
-22 18 -32 39 -10 22 -24 42 -31 45 -8 3 -14 12 -14 21 0 8 -4 15 -10 15 -5 0
-10 7 -10 15 0 8 -6 15 -12 15 -10 0 -10 2 -1 8 9 6 7 12 -7 22 -11 8 -20 21
-20 28 0 8 -6 12 -14 9 -10 -4 -13 -1 -9 8 3 8 -2 17 -10 21 -9 3 -13 12 -10
20 3 9 -1 14 -12 14 -9 0 -13 5 -10 10 7 11 -12 33 -35 43 -12 4 -11 6 3 6 15
1 16 3 5 15 -9 10 -15 11 -20 2 -5 -6 -8 -1 -8 12 0 42 -48 111 -62 89 -5 -8
-8 -7 -8 6 0 9 -4 17 -10 17 -5 0 -10 5 -10 11 0 5 5 7 12 3 7 -4 8 -3 4 5 -4
6 -12 9 -17 6 -5 -4 -12 2 -16 12 -4 10 -10 20 -13 23 -7 5 -84 114 -105 148
-5 9 -20 27 -33 41 -12 15 -25 34 -28 44 -3 9 -12 17 -19 17 -9 0 -12 6 -8 17
4 11 3 14 -5 9 -11 -6 -17 5 -13 27 0 4 -3 6 -8 5 -5 -2 -29 24 -53 57 -25 33
-59 75 -75 93 -17 17 -29 32 -26 32 3 0 -18 26 -46 59 -28 32 -51 64 -51 70 0
6 -5 11 -11 11 -10 0 -177 170 -191 194 -11 20 -155 157 -347 330 -169 153
-494 366 -681 447 -99 42 -120 67 -120 141 0 31 5 60 10 63 6 3 10 16 10 29 0
12 9 32 20 44 11 12 20 26 20 32 0 5 4 10 8 10 5 0 14 16 22 35 8 19 17 35 22
35 4 0 8 9 8 19 0 10 7 21 15 25 10 4 15 20 15 51 0 31 -5 47 -15 51 -8 4 -15
10 -15 15 0 5 -10 20 -22 34 -15 17 -22 37 -20 58 2 27 -6 40 -52 86 -31 30
-53 57 -51 61 3 4 -3 14 -13 21 -16 13 -16 12 -3 -6 8 -11 -22 16 -67 60 -81
79 -94 93 -69 79 7 -4 9 -3 4 2 -5 5 -14 9 -20 9 -7 1 -11 7 -9 14 1 7 -2 10
-7 7 -5 -3 -81 64 -169 149 l-161 156 -57 -78 c-32 -43 -188 -255 -346 -471
l-289 -393 63 -71 c62 -69 189 -186 225 -206 10 -6 16 -12 13 -15 -4 -4 -97
-62 -126 -80 -6 -4 -82 49 -169 118 -87 69 -163 124 -169 122 -12 -4 -595
-986 -596 -1003 0 -7 81 -67 180 -134 l181 -121 -7 -37 c-4 -20 -9 -42 -13
-48 -3 -7 -122 80 -291 213 -156 123 -289 222 -295 220 -5 -2 -75 -105 -153
-228 -79 -123 -174 -264 -210 -314 l-67 -89 -6 69 c-4 39 -7 106 -8 151 0 44
-4 84 -7 87 -4 4 -31 -16 -60 -43 -64 -58 -138 -96 -215 -110 -31 -6 -139 -9
-241 -7 l-186 2 -331 370 -330 370 0 345 0 345 199 215 c109 118 199 220 199
226 1 6 -42 62 -95 123 -332 386 -729 731 -1309 1136 -190 133 -788 529 -965
640 -674 420 -1363 676 -2050 760 -127 16 -678 30 -755 19z m4154 -3072 c-475
-507 -814 -1189 -959 -1929 -63 -322 -74 -443 -75 -828 0 -228 5 -387 13 -455
36 -290 98 -570 179 -804 55 -159 80 -216 92 -216 6 0 526 386 650 484 8 6
-10 -25 -41 -69 -31 -44 -201 -289 -378 -545 -177 -256 -325 -466 -329 -468
-9 -3 -63 132 -116 289 -45 133 -72 252 -90 404 -9 72 -36 213 -60 315 -62
264 -68 299 -70 455 -3 154 -7 170 -74 303 l-42 83 26 31 c37 44 71 114 90
189 14 51 17 97 14 229 -10 448 -2 587 48 825 89 429 274 828 732 1584 84 138
169 270 188 294 20 23 88 90 152 148 l116 106 3 -174 2 -175 -71 -76z m4594
-161 c37 -46 54 -72 42 -67 -40 15 -181 54 -222 61 l-42 7 52 69 52 70 28 -33
c15 -18 56 -67 90 -107z m-1618 -2571 c116 -1548 823 -3413 1785 -4710 632
-850 1319 -1390 1907 -1496 105 -18 315 -21 398 -5 376 75 659 337 838 776 40
97 100 285 123 385 7 34 8 33 21 -35 116 -608 218 -1410 267 -2100 66 -921 66
-1907 0 -2830 -162 -2270 -719 -4454 -1643 -6440 -153 -328 -515 -1032 -550
-1067 -4 -5 -56 53 -115 128 -210 264 -625 744 -1159 1341 l-279 312 -3 328
c-4 474 -29 735 -155 1623 -38 267 -76 550 -86 630 -14 122 -21 152 -44 190
-69 115 -90 224 -90 469 0 279 -12 328 -175 731 -153 377 -202 552 -212 755
-5 112 -9 126 -46 210 -95 215 -182 506 -231 775 -39 214 -64 407 -107 830
-46 459 -69 644 -110 865 -40 225 -49 344 -49 710 0 409 -13 526 -82 743 -39
124 -46 248 -28 542 15 252 10 321 -51 645 -64 339 -72 426 -154 1630 -44 641
-43 636 -90 720 -29 52 -41 89 -56 177 -21 120 -67 330 -153 698 -96 412 -126
624 -126 900 0 168 -27 490 -41 490 -5 0 -646 -806 -760 -956 -5 -6 54 -141
138 -320 l147 -309 0 -205 c1 -271 -30 -439 -138 -763 -132 -394 -224 -577
-528 -1047 -79 -124 -171 -269 -203 -323 -63 -107 -94 -136 -206 -196 -63 -33
-192 -81 -220 -81 -5 0 43 66 107 146 516 655 780 1204 870 1809 22 146 29
465 14 625 -12 140 -62 445 -73 457 -9 8 3 24 -102 -142 -49 -77 -165 -255
-258 -395 -195 -295 -292 -455 -401 -665 -181 -348 -360 -557 -579 -675 -140
-76 -313 -120 -467 -120 l-77 0 -6 53 c-5 44 -12 57 -44 84 l-38 33 231 0 230
0 75 51 c164 113 327 270 462 444 138 179 217 307 437 710 224 412 321 568
460 741 65 82 69 90 53 102 -18 13 -69 42 -423 237 -211 117 -323 188 -446
286 -79 63 -377 358 -526 522 l-80 87 89 0 89 0 298 -347 299 -347 320 -98
c176 -54 321 -98 323 -98 1 0 12 26 24 58 57 151 142 273 360 517 174 194 247
285 315 390 121 184 179 349 200 561 l6 62 -218 112 c-265 136 -368 202 -451
288 -86 89 -86 90 -46 136 l33 38 386 -261 c212 -144 389 -261 394 -261 4 0
95 128 202 284 l194 284 7 -111 c5 -62 15 -204 23 -317z m12305 -2992 c47 -14
63 -29 108 -107 160 -271 2348 -4257 5769 -10511 2221 -4059 2933 -5363 2933
-5370 0 -12 -25 -16 -335 -59 -1994 -273 -4486 -404 -7725 -404 -2398 0 -3827
119 -5431 453 -465 97 -912 201 -2039 474 -776 188 -1419 332 -1810 405 -215
41 -271 53 -266 58 2 3 -4 13 -15 24 -11 11 -17 24 -14 29 4 6 1 10 -4 10 -6
0 -11 7 -11 15 0 8 -4 15 -10 15 -5 0 -10 6 -10 14 0 8 -4 16 -9 18 -5 2 -11
10 -13 18 -2 8 -11 23 -21 32 -10 9 -18 20 -19 25 0 4 -3 7 -7 6 -4 -1 -8 13
-9 30 -2 17 -7 36 -12 41 -6 6 -10 18 -10 28 0 10 -6 17 -12 15 -9 -1 -14 17
-16 60 -2 53 -1 62 13 57 12 -5 15 1 15 29 0 20 5 39 10 42 6 3 10 15 10 26 0
10 5 19 10 19 6 0 10 11 10 25 0 14 5 25 10 25 6 0 10 7 10 15 0 8 3 15 8 15
8 0 32 49 32 67 0 7 5 13 10 13 6 0 10 9 10 20 0 11 5 20 10 20 6 0 10 9 10
20 0 11 3 20 8 20 9 0 32 49 32 68 0 7 5 10 10 7 6 -4 10 5 10 19 0 14 5 26
10 26 6 0 10 7 10 15 0 8 7 15 15 15 10 0 15 10 15 30 0 17 3 30 8 30 9 0 32
49 32 68 0 7 5 10 10 7 6 -3 10 3 10 14 0 12 5 21 10 21 6 0 10 11 10 25 0 14
3 25 8 25 9 0 32 49 32 68 0 7 5 10 10 7 6 -4 10 7 10 24 0 17 5 31 10 31 6 0
10 9 10 20 0 11 5 20 10 20 6 0 10 9 10 20 0 11 5 20 10 20 6 0 10 9 10 20 0
11 5 20 10 20 6 0 10 9 10 20 0 12 7 20 18 20 14 0 15 2 2 10 -10 6 -11 10 -2
10 6 0 12 7 12 15 0 8 6 15 13 15 8 0 7 4 -3 10 -10 6 -11 10 -2 10 6 0 12 9
12 20 0 11 5 20 10 20 6 0 10 9 10 21 0 11 5 17 10 14 6 -3 10 3 10 14 0 11 5
23 10 26 6 3 10 15 10 26 0 10 5 19 10 19 6 0 10 12 10 26 0 14 4 23 10 19 6
-3 10 3 10 15 0 11 9 40 20 62 11 23 20 50 20 60 0 11 5 16 10 13 6 -4 10 7
10 24 0 17 5 31 10 31 6 0 10 9 10 20 0 11 5 20 10 20 6 0 10 14 10 31 0 24 4
30 15 25 11 -4 15 1 15 19 0 14 5 25 10 25 6 0 10 9 10 19 0 11 5 23 10 26 6
3 10 15 10 26 0 10 5 19 10 19 6 0 10 14 10 30 0 17 5 30 10 30 6 0 10 11 10
24 0 14 5 28 10 31 6 3 10 17 10 31 0 13 5 24 10 24 6 0 10 9 10 20 0 11 5 20
10 20 6 0 10 14 10 30 0 17 4 30 8 30 5 0 15 25 22 55 7 31 17 58 22 61 4 3 8
14 8 25 0 11 5 17 10 14 6 -4 10 11 11 37 0 31 3 37 8 23 6 -15 12 -7 26 40
10 33 22 64 27 70 4 5 8 19 8 32 0 13 5 23 10 23 6 0 10 14 10 30 0 17 5 30
10 30 6 0 10 14 10 30 0 17 5 30 10 30 6 0 10 9 10 20 0 11 5 20 10 20 6 0 10
15 10 34 0 19 5 38 10 41 6 3 10 19 10 36 0 16 5 29 10 29 6 0 10 14 10 30 0
17 5 30 10 30 6 0 10 9 10 20 0 11 5 20 10 20 6 0 10 18 10 40 0 22 5 40 10
40 6 0 10 13 10 30 0 18 5 29 12 27 7 -1 14 9 16 23 2 14 8 29 13 35 5 5 9 24
9 43 0 19 4 31 10 27 6 -4 10 10 10 34 0 23 5 41 10 41 6 0 10 11 10 24 0 14
5 28 10 31 6 3 10 19 10 36 0 16 5 29 10 29 6 0 10 18 10 40 0 22 5 40 10 40
6 0 10 16 10 35 0 19 5 35 10 35 6 0 10 13 10 29 0 17 5 33 10 36 6 3 10 19
10 36 0 16 5 29 10 29 6 0 10 18 10 39 0 22 5 43 10 46 6 3 10 19 10 35 0 16
4 31 9 34 4 3 11 24 15 46 4 23 11 38 16 35 6 -4 10 8 10 29 0 19 5 38 10 41
6 3 10 22 10 41 0 19 5 34 10 34 6 0 10 16 10 35 0 19 5 35 10 35 6 0 10 20
10 45 0 25 5 45 10 45 6 0 10 18 10 40 0 22 5 40 10 40 6 0 10 16 10 35 0 19
5 35 10 35 6 0 10 20 10 45 0 25 5 45 10 45 6 0 10 18 10 40 0 22 5 40 10 40
6 0 10 18 10 40 0 22 4 40 9 40 5 0 12 21 15 48 11 100 18 137 27 147 5 5 9
23 9 41 0 18 3 40 7 50 6 16 7 16 14 -2 5 -12 8 7 8 49 1 43 5 66 11 62 6 -4
10 13 10 44 0 28 4 51 9 51 9 0 12 16 27 143 3 31 10 57 15 57 5 0 9 25 9 55
0 30 5 55 10 55 6 0 10 27 10 60 0 33 4 60 9 60 9 0 13 26 27 173 3 31 10 57
15 57 5 0 9 29 9 65 0 36 4 65 9 65 5 0 12 28 15 63 12 138 18 177 27 177 5 0
9 42 9 93 0 60 3 87 10 77 14 -22 18 -11 24 75 14 194 19 235 27 235 5 0 9 39
9 86 0 47 4 83 9 80 5 -3 12 43 15 102 13 231 18 287 27 297 5 5 9 64 9 132 0
75 4 123 10 123 6 0 10 48 10 124 0 73 4 127 10 131 6 4 10 77 10 186 0 102 4
179 9 179 22 0 30 1192 12 1695 -6 160 -14 355 -17 435 -3 80 -9 149 -15 155
-5 5 -9 69 -9 142 0 74 -4 133 -9 133 -5 0 -12 51 -15 113 -3 61 -10 162 -16
222 -5 61 -13 154 -16 208 -3 53 -10 97 -15 97 -5 0 -9 41 -9 90 0 50 -4 90
-9 90 -5 0 -11 35 -15 78 -19 256 -23 282 -36 227 -5 -20 -8 1 -9 63 0 50 -5
92 -10 92 -5 0 -12 35 -15 78 -14 162 -18 192 -27 192 -5 0 -9 29 -9 65 0 36
-4 65 -9 65 -9 0 -15 39 -27 178 -3 34 -10 62 -15 62 -5 0 -9 36 -9 80 0 44 4
80 9 80 9 0 11 22 26 215 3 44 10 89 15 100 29 66 29 1045 0 1045 -5 0 -11 46
-14 103 -11 185 -18 247 -27 247 -5 0 -9 11 -9 25 0 15 6 25 14 25 8 0 120 -7
248 -15 1147 -73 2409 -55 4198 60 1050 68 1425 107 1815 190 503 108 709 131
835 93z m-15328 -2706 c-3 -233 -1 -357 9 -463 29 -299 19 -418 -61 -759 -73
-308 -74 -313 -69 -805 9 -929 -4 -1128 -96 -1500 -19 -77 -39 -178 -45 -225
-13 -108 -13 -334 1 -525 26 -364 16 -538 -61 -1120 -27 -199 -33 -282 -42
-625 -18 -612 4 -1085 68 -1470 84 -506 322 -1169 580 -1616 117 -204 198
-315 398 -545 81 -95 470 -597 500 -647 11 -18 -102 43 -200 109 -383 257
-720 669 -1053 1285 -225 417 -299 680 -411 1464 -28 190 -58 392 -69 450
l-19 104 33 201 c59 350 66 543 51 1440 -11 729 7 1007 90 1394 54 249 64 320
70 501 7 178 -3 353 -38 657 -21 185 -21 197 -6 320 9 70 37 214 62 320 83
346 79 280 71 1234 -4 465 -4 912 0 992 l7 147 118 0 118 0 -6 -318z m-11589
-10336 c322 -94 520 -139 1177 -271 256 -51 641 -134 855 -184 610 -141 612
-141 1030 -171 173 -13 291 -31 407 -64 46 -13 94 -26 108 -30 14 -4 140 -11
280 -16 276 -9 358 -21 466 -70 61 -27 62 -28 345 -33 288 -5 349 -10 760 -67
580 -81 836 -95 1159 -64 258 24 667 24 1020 0 457 -32 884 -18 1735 54 728
62 1197 86 1420 75 l120 -7 60 46 c90 69 136 81 280 76 66 -2 170 -4 231 -4
110 -1 111 -1 200 41 149 71 215 84 489 93 134 4 281 3 332 -2 106 -10 157 -1
241 41 92 46 266 106 417 144 190 48 392 80 760 122 483 56 562 69 1225 210
449 95 710 133 949 136 l125 1 93 -163 c322 -561 564 -1158 717 -1766 33 -129
33 -132 -5 -53 -17 36 -32 66 -34 68 -7 7 -586 -520 -599 -546 -8 -15 -89
-207 -181 -427 -91 -220 -174 -407 -183 -416 -9 -9 -244 -152 -522 -319 -278
-166 -511 -308 -519 -315 -11 -11 22 -82 198 -428 l211 -414 0 -370 0 -370
-362 -354 c-200 -195 -450 -437 -557 -539 -106 -102 -224 -224 -262 -271 -93
-116 -192 -208 -264 -243 -99 -49 -138 -80 -287 -229 -115 -115 -157 -150
-215 -180 -86 -45 -115 -79 -149 -178 -49 -145 -91 -189 -182 -189 -41 0 -49
-5 -135 -86 -112 -106 -192 -169 -456 -359 -113 -80 -236 -173 -275 -205 -100
-81 -244 -233 -293 -309 -48 -74 -59 -136 -56 -333 3 -282 69 -501 298 -988
91 -193 174 -384 170 -388 -7 -7 -202 99 -239 130 -53 43 -101 121 -206 331
-93 186 -155 355 -187 512 -28 139 -25 533 6 754 12 90 19 167 14 171 -23 21
-572 211 -851 296 -667 201 -947 252 -1322 241 -202 -6 -249 -13 -540 -80
-219 -51 -276 -60 -506 -82 -168 -15 -263 -32 -375 -65 -229 -68 -584 -66
-855 6 -173 46 -230 53 -419 53 -99 0 -195 5 -214 10 -19 6 -64 28 -100 50
-130 79 -184 90 -464 92 l-216 1 -203 -118 c-112 -65 -309 -181 -438 -258
-329 -195 -429 -240 -654 -288 -79 -17 -135 -21 -256 -21 -85 0 -174 4 -197
10 -42 11 -43 10 -43 -13 0 -13 13 -84 30 -158 41 -187 60 -309 60 -394 0
-194 -107 -495 -253 -709 -29 -43 -80 -129 -112 -191 -32 -61 -73 -130 -92
-151 -37 -44 -141 -101 -184 -101 -15 0 -62 16 -104 35 l-77 35 69 74 c37 40
134 143 214 227 l146 154 5 90 c4 74 15 117 56 240 66 193 84 285 85 420 2
131 -11 191 -65 304 -34 71 -56 101 -137 181 -114 116 -195 171 -418 289 -191
101 -250 135 -488 283 -93 58 -287 177 -430 263 -495 300 -774 494 -1100 766
-183 153 -420 385 -519 509 -202 254 -326 510 -373 773 -21 121 -21 350 1 479
9 54 16 118 16 143 0 37 15 76 79 204 153 305 195 363 425 599 91 93 155 166
150 171 -23 20 -628 413 -700 454 -45 25 -142 75 -216 111 -350 168 -461 323
-628 875 -69 230 -105 319 -165 417 -82 132 -233 248 -381 294 l-52 15 63 220
c76 263 122 398 221 647 130 330 300 674 484 985 l72 123 41 -24 c23 -14 113
-45 200 -70z m18534 -2447 c438 -89 786 -170 1718 -400 1570 -388 2111 -501
2975 -623 951 -135 1868 -207 3165 -248 491 -15 2533 -15 3255 1 2240 48 3856
151 5509 352 183 22 336 37 339 34 3 -3 -158 -171 -359 -373 -201 -202 -554
-560 -784 -797 -231 -236 -695 -707 -1030 -1045 -707 -711 -847 -869 -1142
-1285 -39 -55 -83 -111 -98 -125 l-27 -25 -7096 -3 -7097 -2 1 572 c1 315 -2
555 -6 533 -4 -24 -9 48 -13 185 -14 480 -18 570 -28 565 -5 -4 -9 50 -9 135
0 92 -4 139 -10 135 -7 -4 -10 48 -10 150 0 89 -4 154 -9 151 -5 -3 -12 47
-15 112 -15 296 -19 344 -27 331 -5 -9 -9 21 -10 76 -1 61 -4 82 -9 65 -6 -17
-9 1 -10 60 -2 56 -5 75 -9 55 -10 -47 -21 -7 -21 80 0 68 11 103 23 73 3 -7
6 -3 6 10 1 12 8 25 16 28 8 4 12 10 9 15 -3 5 2 9 11 9 9 0 13 5 10 10 -3 6
3 10 14 10 12 0 21 5 21 10 0 6 6 10 13 10 18 0 67 24 67 33 0 4 12 7 26 7 14
0 23 4 19 10 -4 6 5 10 19 10 16 0 26 6 26 15 0 8 7 15 15 15 8 0 15 5 15 10
0 6 7 10 16 10 8 0 13 4 10 8 -2 4 9 14 26 21 17 8 33 22 35 32 3 11 14 19 27
19 17 0 18 2 6 10 -13 8 -12 10 3 10 21 0 47 23 47 40 0 12 24 40 35 40 12 0
35 29 35 44 0 9 5 16 10 16 6 0 10 6 10 13 0 6 9 23 20 37 11 14 20 33 20 43
0 10 5 15 10 12 6 -3 10 5 10 19 0 14 5 28 10 31 6 3 10 17 10 31 0 13 5 24
10 24 6 0 10 28 10 65 0 39 4 65 11 65 7 0 8 45 5 138 -5 139 -20 294 -26 257
-1 -11 -6 3 -10 30 -4 28 -10 58 -14 68 -11 24 -8 23 221 -24z m-20882 -79
c-77 -194 -115 -372 -115 -547 0 -194 44 -346 140 -480 47 -66 132 -156 197
-208 19 -16 30 -32 26 -40 -3 -8 -1 -15 5 -15 6 0 13 6 15 13 3 6 6 2 6 -10 1
-14 7 -23 17 -23 9 0 12 5 8 12 -4 7 -3 8 5 4 6 -4 9 -12 6 -17 -8 -12 45 -58
68 -59 10 0 15 -4 12 -10 -3 -5 5 -15 19 -22 14 -6 26 -15 26 -20 0 -4 7 -8
15 -8 8 0 15 -4 15 -10 0 -5 6 -10 13 -10 7 0 32 -9 55 -20 22 -11 54 -20 69
-20 20 0 24 -3 14 -9 -9 -6 -10 -11 -2 -15 6 -4 15 -5 20 -1 6 3 8 -8 5 -27
-6 -48 -42 -490 -59 -744 -59 -848 -25 -1496 104 -2038 17 -70 31 -130 31
-132 0 -7 -14017 -2 -14140 5 l-115 6 -60 82 c-33 44 -94 128 -135 185 -234
322 -406 514 -980 1089 -267 267 -770 778 -1119 1135 -349 357 -747 763 -885
902 -144 144 -244 252 -234 252 9 0 162 -18 340 -40 1605 -197 3360 -309 5478
-350 2874 -55 4698 10 6305 226 877 117 1469 238 2980 610 413 102 883 216
1045 254 267 63 832 188 837 186 1 -1 -13 -40 -32 -86z m8320 -11361 c-22 -4
-53 -7 -70 -7 -26 1 -24 2 10 8 22 4 54 7 70 7 25 1 23 -1 -10 -8z m-3258
-865 c-3 -3 -12 -4 -19 -1 -8 3 -5 6 6 6 11 1 17 -2 13 -5z m9228 -1774 c3 -5
1 -10 -4 -10 -6 0 -11 5 -11 10 0 6 2 10 4 10 3 0 8 -4 11 -10z m-5688 -492
c-3 -8 -6 -5 -6 6 -1 11 2 17 5 13 3 -3 4 -12 1 -19z"/>
<path d="M37574 34364 c-33 -49 -27 -159 14 -264 31 -77 34 -91 30 -170 -7
-126 8 -317 42 -570 38 -274 47 -452 31 -584 -12 -95 -12 -97 12 -139 55 -93
63 -159 58 -452 -3 -155 -2 -165 34 -325 35 -151 38 -177 37 -300 -2 -206 17
-314 121 -671 25 -85 57 -211 72 -279 15 -68 58 -214 97 -325 68 -196 76 -229
152 -630 14 -71 36 -179 50 -240 46 -195 59 -330 51 -515 -14 -297 -14 -289
23 -345 65 -98 67 -194 8 -360 -20 -55 -36 -103 -36 -106 0 -3 34 -27 76 -54
98 -61 213 -175 345 -340 57 -71 137 -166 177 -210 154 -167 255 -324 424
-662 90 -180 114 -238 207 -520 58 -175 111 -318 116 -318 20 1 126 162 185
280 179 360 237 795 210 1600 -6 198 -11 523 -11 723 1 424 -10 641 -45 842
-29 172 -41 319 -53 690 -7 201 -16 321 -35 445 -31 210 -42 361 -57 765 -12
298 -14 317 -34 345 -36 49 -45 92 -45 220 0 95 -7 163 -34 311 -19 104 -44
275 -56 379 -36 331 -50 439 -59 461 -5 12 -30 38 -56 59 l-46 38 -117 -115
c-189 -186 -342 -286 -492 -324 -128 -32 -307 1 -499 92 -78 37 -107 57 -170
122 -92 93 -147 193 -241 442 -73 192 -142 348 -309 700 -67 140 -129 272
-139 294 l-18 39 -20 -29z"/>
<path d="M42535 35113 c-169 -23 -278 -126 -332 -314 -16 -57 -18 -108 -18
-499 0 -391 2 -442 18 -499 40 -142 115 -239 215 -282 75 -33 188 -45 282 -31
229 33 329 171 347 480 l6 112 -121 0 -122 0 0 -77 c0 -163 -34 -260 -105
-300 -107 -61 -224 -5 -267 127 -19 60 -21 93 -26 400 -4 344 5 520 32 583 31
74 112 115 207 104 105 -13 148 -77 156 -238 l6 -99 120 0 120 0 -7 88 c-17
211 -88 348 -210 406 -79 38 -197 53 -301 39z"/>
<path d="M43190 34300 l0 -800 320 0 320 0 0 90 0 90 -200 0 -200 0 0 280 0
280 140 0 140 0 0 90 0 90 -140 0 -140 0 0 250 0 250 200 0 200 0 0 90 0 90
-320 0 -320 0 0 -800z"/>
<path d="M43950 34300 l0 -800 120 0 120 0 0 370 0 371 82 -3 82 -3 93 -300
c51 -165 102 -330 114 -367 l20 -68 120 0 c93 0 120 3 116 13 -14 37 -247 769
-247 775 0 4 20 19 44 33 87 53 135 158 144 311 14 268 -88 406 -333 453 -52
10 -142 15 -276 15 l-199 0 0 -800z m453 590 c81 -38 117 -105 117 -219 0 -93
-16 -140 -61 -183 -47 -45 -117 -68 -206 -68 l-63 0 0 251 0 252 83 -5 c56 -4
97 -13 130 -28z"/>
<path d="M44940 34300 l0 -800 320 0 320 0 0 90 0 90 -200 0 -200 0 0 280 0
280 140 0 140 0 0 90 0 90 -140 0 -140 0 0 250 0 250 200 0 200 0 0 90 0 90
-320 0 -320 0 0 -800z"/>
<path d="M45710 34300 l0 -800 243 0 c315 0 380 15 489 118 119 111 163 351
97 527 -28 74 -102 151 -180 185 l-55 24 56 27 c126 60 171 132 178 291 8 187
-58 308 -205 376 -94 43 -165 52 -410 52 l-213 0 0 -800z m424 610 c32 -5 79
-19 103 -31 38 -18 50 -32 70 -77 22 -47 25 -64 21 -132 -6 -106 -42 -171
-119 -214 -49 -28 -64 -31 -161 -35 l-108 -3 0 251 0 251 68 0 c37 0 93 -4
126 -10z m69 -703 c87 -40 127 -117 127 -247 0 -197 -90 -280 -302 -280 l-88
0 0 281 0 282 104 -5 c82 -5 116 -11 159 -31z"/>
<path d="M46720 34300 l0 -800 120 0 120 0 0 370 0 371 82 -3 82 -3 88 -285
c49 -157 100 -322 113 -367 l26 -83 120 0 c110 0 120 1 115 18 -4 9 -62 189
-129 399 -118 365 -123 382 -103 387 38 10 92 63 123 123 42 78 57 162 51 281
-9 170 -67 271 -192 332 -94 46 -189 60 -417 60 l-199 0 0 -800z m414 603
c107 -30 156 -103 156 -233 0 -86 -18 -138 -62 -182 -44 -44 -115 -68 -205
-68 l-63 0 0 250 0 250 57 0 c31 0 84 -8 117 -17z"/>
<path d="M47692 34478 l3 -623 27 -80 c32 -93 71 -159 119 -199 80 -68 214
-103 353 -93 250 18 374 153 406 442 5 50 10 334 10 633 l0 542 -120 0 -119 0
-3 -607 c-4 -667 -4 -671 -65 -744 -71 -84 -235 -91 -305 -13 -68 77 -78 178
-78 852 l0 512 -115 0 -116 0 3 -622z"/>
<path d="M48810 34300 l0 -800 120 0 120 0 2 588 3 587 106 -585 105 -585 91
-3 c87 -3 91 -2 96 20 3 13 52 282 109 598 l103 575 3 -597 2 -598 115 0 115
0 0 800 0 800 -159 0 c-143 0 -160 -2 -165 -17 -2 -10 -50 -265 -106 -568 -55
-302 -104 -558 -108 -568 -5 -12 -40 158 -96 460 -49 263 -97 526 -108 586
l-20 107 -164 0 -164 0 0 -800z"/>
<path d="M52214 28371 c-112 -18 -186 -53 -261 -123 -98 -93 -136 -191 -136
-348 -1 -148 35 -263 114 -367 25 -33 130 -126 287 -252 242 -194 315 -266
342 -336 56 -146 16 -292 -88 -326 -46 -15 -137 -15 -177 1 -52 20 -90 56
-122 117 -33 63 -63 177 -63 242 0 26 -5 41 -12 41 -7 0 -73 -14 -145 -32
l-133 -32 0 -47 c0 -63 34 -191 71 -267 40 -81 132 -180 201 -215 29 -14 82
-34 118 -43 79 -20 243 -22 320 -4 138 31 256 123 306 236 67 151 50 365 -43
532 -52 95 -137 178 -378 372 -222 178 -261 219 -291 302 -17 48 -18 155 -3
195 13 35 55 80 94 101 42 22 139 21 197 -1 85 -33 152 -140 165 -265 3 -30
11 -56 18 -58 6 -3 72 10 146 29 l134 33 -3 40 c-18 226 -161 405 -367 458
-74 19 -223 27 -291 17z"/>
<path d="M42620 27370 l0 -990 145 0 145 0 0 460 0 460 163 0 c233 0 330 31
426 135 80 87 111 190 111 371 0 193 -40 323 -129 417 -109 115 -200 136 -588
137 l-273 0 0 -990z m459 760 c101 -13 152 -37 190 -91 37 -50 51 -115 51
-232 0 -155 -27 -213 -119 -256 -48 -22 -73 -26 -173 -29 l-118 -4 0 311 0
311 43 0 c23 0 80 -5 126 -10z"/>
<path d="M43786 27388 c-114 -535 -210 -981 -212 -991 -5 -16 5 -17 142 -15
l148 3 51 240 52 240 171 3 c156 2 171 1 176 -15 2 -10 26 -120 53 -245 l48
-228 142 0 c142 0 143 0 143 23 -1 12 -94 456 -208 987 l-207 965 -146 3 -145
3 -208 -973z m418 117 c32 -192 60 -362 63 -377 l6 -28 -132 0 c-72 0 -131 3
-131 8 -1 29 126 760 131 754 3 -4 32 -164 63 -357z"/>
<path d="M44830 27683 c0 -375 5 -720 10 -772 27 -254 118 -417 272 -489 92
-43 159 -56 288 -56 297 1 453 118 532 401 22 77 22 92 26 836 l3 757 -145 0
-145 0 -3 -752 -3 -753 -23 -68 c-42 -123 -117 -179 -242 -179 -56 -1 -80 5
-125 27 -67 32 -99 75 -128 173 -20 65 -21 92 -25 810 l-3 742 -145 0 -144 0
0 -677z"/>
<path d="M46220 27371 l0 -991 145 0 145 0 0 459 0 459 183 4 c158 4 189 7
238 26 130 51 211 137 252 267 29 91 31 313 4 415 -47 177 -131 270 -290 323
-56 18 -93 21 -369 25 l-308 4 0 -991z m538 744 c108 -32 155 -122 156 -295 1
-133 -7 -172 -47 -217 -51 -58 -104 -76 -239 -81 l-118 -4 0 312 0 313 100 -7
c54 -4 121 -13 148 -21z"/>
<path d="M47360 27370 l0 -990 390 0 390 0 0 110 0 110 -245 0 -245 0 0 350 0
350 175 0 175 0 0 110 0 110 -175 0 -175 0 0 310 0 310 245 0 245 0 0 110 0
110 -390 0 -390 0 0 -990z"/>
<path d="M48300 27371 l0 -991 145 0 145 0 0 460 0 460 100 0 99 0 39 -122
c21 -68 85 -275 143 -460 l104 -338 143 0 c94 0 142 4 142 11 0 8 -286 907
-307 964 -2 6 17 21 42 34 127 67 195 219 195 436 0 241 -75 383 -243 460
-119 55 -191 66 -484 72 l-263 6 0 -992z m528 737 c114 -42 172 -135 172 -274
0 -145 -42 -226 -143 -278 -50 -25 -71 -30 -162 -34 l-105 -5 0 313 0 313 91
-7 c51 -4 115 -16 147 -28z"/>
<path d="M49370 28230 l0 -130 175 0 175 0 0 -860 0 -860 145 0 145 0 0 860 0
860 175 0 175 0 0 130 0 130 -495 0 -495 0 0 -130z"/>
<path d="M50483 27608 c3 -740 3 -754 25 -837 75 -285 233 -404 532 -405 130
0 196 13 289 57 152 71 240 226 271 477 6 51 10 359 10 772 l0 688 -145 0
-144 0 -3 -742 c-4 -807 -3 -798 -61 -902 -43 -78 -157 -123 -266 -105 -100
16 -164 78 -198 194 -16 55 -18 128 -21 808 l-3 747 -145 0 -145 0 4 -752z"/>
<path d="M21340 25298 l0 -173 230 -230 230 -231 40 -194 c83 -414 164 -579
422 -860 59 -63 138 -143 176 -177 l71 -63 85 0 86 0 127 -103 c424 -343 820
-629 1728 -1247 253 -172 537 -367 632 -432 l172 -120 -30 -80 c-16 -44 -33
-86 -37 -93 -5 -9 -303 195 -982 671 -536 376 -979 684 -985 684 -13 0 -234
-303 -343 -469 -151 -230 -250 -453 -288 -649 -11 -52 -18 -137 -18 -212 l0
-125 96 -200 c153 -317 194 -383 339 -542 173 -190 668 -655 899 -845 546
-450 1451 -1021 1805 -1138 163 -54 226 -64 412 -64 l171 -1 47 33 c26 18 228
154 448 301 l402 268 384 -13 c446 -15 621 -32 856 -79 243 -49 303 -55 516
-55 218 0 378 15 744 70 329 49 398 57 569 71 121 9 144 14 175 35 101 68 280
111 426 100 124 -9 179 -23 500 -127 265 -86 356 -117 725 -245 295 -102 444
-129 673 -121 256 8 223 -9 539 270 888 780 1473 1358 1931 1907 152 183 365
463 464 611 l71 106 -14 139 c-27 263 -78 497 -149 690 -62 167 -194 419 -216
412 -5 -2 -493 -335 -1085 -742 -591 -406 -1077 -737 -1079 -735 -8 9 -75 154
-75 164 0 5 254 178 563 383 628 416 703 469 1277 897 554 412 728 534 1010
701 228 136 259 160 317 247 62 92 102 196 188 482 37 121 86 268 111 327 77
181 195 339 328 438 72 52 85 73 146 224 l52 129 -83 83 c-46 46 -89 84 -95
84 -6 0 -70 -25 -143 -56 -145 -61 -205 -76 -396 -99 -414 -50 -523 -72 -673
-136 -148 -63 -184 -69 -437 -79 -270 -10 -342 -25 -474 -96 -154 -83 -246
-104 -546 -124 -186 -12 -267 -23 -545 -75 -248 -46 -311 -53 -545 -64 -179
-9 -225 -15 -440 -60 -299 -61 -364 -69 -700 -81 -366 -13 -455 -25 -685 -96
-99 -30 -208 -35 -505 -20 -205 10 -244 6 -565 -54 -114 -22 -270 -44 -345
-50 -165 -14 -935 -17 -1890 -9 -815 7 -856 11 -1174 103 -158 46 -267 56
-576 55 -294 -2 -365 6 -530 58 -209 66 -353 85 -785 103 -445 19 -834 81
-1845 291 -968 201 -1353 301 -1779 459 -60 22 -113 40 -117 40 -5 0 -9 -78
-9 -172z"/>
<path d="M38140 47301 l-42 -70 90 -103 c49 -57 113 -125 141 -151 88 -82 191
-117 303 -103 48 7 56 12 86 52 19 25 32 47 30 48 -18 16 -286 205 -410 289
l-157 108 -41 -70z"/>
<path d="M20400 47144 c-30 -70 -59 -128 -65 -130 -5 -2 -93 -10 -194 -18
-101 -8 -185 -17 -188 -20 -2 -2 118 -156 267 -343 243 -303 337 -406 368
-402 20 3 32 -3 32 -15 0 -8 9 -18 20 -21 11 -3 20 -10 20 -15 0 -5 7 -7 15
-4 8 4 15 1 15 -6 0 -6 5 -8 10 -5 6 3 10 2 10 -3 0 -6 24 -12 54 -14 30 -1
52 1 49 6 -3 4 4 5 15 2 11 -4 23 -2 27 4 3 5 18 10 33 10 20 0 23 -3 12 -9
-8 -6 -17 -8 -21 -5 -4 2 -11 -1 -15 -7 -4 -8 -3 -9 4 -5 7 4 12 2 12 -3 0 -6
-7 -11 -15 -11 -8 0 -15 -4 -15 -10 0 -5 -7 -10 -15 -10 -8 0 -15 -3 -15 -7 0
-5 -45 -37 -100 -73 -55 -36 -100 -69 -100 -75 0 -16 414 -634 425 -635 13 0
477 209 489 221 6 5 -26 88 -79 206 -48 109 -88 206 -87 216 0 9 8 24 17 33
14 14 13 18 -10 36 -14 11 -25 27 -25 36 0 15 -2 15 -10 2 -7 -11 -10 -11 -10
-2 0 7 -4 10 -10 7 -5 -3 -10 3 -10 14 0 12 -3 21 -8 21 -4 0 -14 15 -21 33
-8 17 -32 70 -53 116 l-38 83 -24 -16 c-51 -33 -94 -54 -99 -49 -9 8 17 31 28
25 6 -3 3 3 -5 13 -9 11 -10 16 -2 11 9 -5 12 6 12 44 0 32 -4 49 -10 45 -6
-4 -10 7 -10 24 0 17 -4 31 -10 31 -5 0 -10 9 -10 20 0 11 -4 20 -10 20 -5 0
-10 7 -10 15 0 8 -3 15 -8 15 -9 0 -52 92 -52 113 0 8 -7 20 -15 27 -8 7 -12
16 -9 21 3 5 -1 9 -9 9 -11 0 -13 7 -9 22 4 15 2 19 -7 14 -8 -5 -14 0 -18 13
-3 12 -9 21 -14 21 -5 0 -9 7 -9 15 0 8 -5 15 -12 15 -6 0 -8 3 -5 7 4 3 0 11
-8 17 -8 6 -16 21 -18 34 -2 13 -11 32 -20 43 -9 10 -17 26 -17 34 0 8 -4 15
-9 15 -23 0 -72 61 -129 160 -34 60 -43 68 -117 107 -44 23 -84 42 -90 43 -5
0 -35 -57 -65 -126z m660 -878 c0 -3 -4 -8 -10 -11 -5 -3 -10 -1 -10 4 0 6 5
11 10 11 6 0 10 -2 10 -4z m-93 -62 c-3 -3 -12 -4 -19 -1 -8 3 -5 6 6 6 11 1
17 -2 13 -5z m-32 -24 c-3 -5 -12 -7 -20 -3 -21 7 -19 13 6 13 11 0 18 -4 14
-10z"/>
<path d="M37802 46828 c-38 -57 -124 -188 -192 -291 l-123 -189 1 -81 c3 -164
71 -291 180 -336 33 -14 60 -40 29 -28 -11 4 -14 2 -11 -7 3 -8 14 -12 27 -8
21 5 21 4 -2 -17 -19 -16 -21 -21 -8 -21 10 0 17 6 17 13 0 6 9 -2 19 -20 16
-26 29 -33 78 -43 32 -7 71 -16 87 -21 39 -12 193 -11 201 1 3 6 15 10 26 10
10 0 19 5 19 10 0 6 9 10 20 10 11 0 20 5 20 10 0 6 7 10 16 10 8 0 13 4 10 8
-3 5 4 15 15 22 10 8 19 20 19 27 0 7 4 13 8 13 5 0 15 12 23 28 8 15 22 34
31 43 10 9 18 22 18 29 0 7 9 21 21 31 11 9 20 20 20 23 -3 24 0 30 9 16 8
-12 10 -11 10 8 0 12 5 22 10 22 6 0 10 11 10 25 0 14 5 25 11 25 14 0 39 25
39 39 0 6 5 11 10 11 6 0 10 7 10 15 0 8 5 15 10 15 6 0 10 7 10 15 0 8 5 15
10 15 6 0 10 7 10 15 0 8 5 15 10 15 6 0 10 9 10 19 0 11 5 23 10 26 22 14 2
135 -22 135 -5 0 -8 6 -8 14 0 8 -10 16 -22 18 -17 2 -22 9 -20 23 2 11 8 22
12 25 5 3 11 16 14 30 6 24 -8 32 -299 185 -168 88 -312 161 -319 163 -9 2
-42 -37 -84 -100z"/>
<path d="M37640 45806 c7 -7 13 -7 20 0 6 6 3 10 -10 10 -13 0 -16 -4 -10 -10z"/>
<path d="M37690 45758 c38 -39 52 -43 26 -6 -9 12 -16 19 -16 14 0 -5 -10 -1
-22 10 -13 10 -7 2 12 -18z"/>
<path d="M24533 44962 l-142 -25 -76 -165 -77 -165 33 -191 c17 -105 37 -196
43 -202 6 -6 88 -19 181 -28 94 -10 176 -18 184 -19 8 -1 47 84 112 248 54
138 99 255 99 262 0 7 -41 80 -91 163 -61 101 -97 150 -108 149 -9 -1 -80 -13
-158 -27z"/>
<path d="M34232 44717 l-52 -53 0 -166 c0 -150 2 -174 24 -232 47 -132 121
-216 235 -269 60 -28 77 -32 186 -35 l120 -4 55 56 55 57 3 134 c7 248 -53
401 -208 530 l-42 35 -162 0 -162 0 -52 -53z"/>
<path d="M22870 43638 c-168 -162 -228 -209 -397 -310 -67 -40 -122 -77 -123
-83 0 -9 616 -845 644 -873 10 -10 68 14 312 131 l299 143 7 44 c3 25 7 105 7
178 l1 133 -295 387 c-163 213 -299 388 -303 389 -4 1 -72 -61 -152 -139z"/>
<path d="M23410 42214 c-206 -173 -385 -325 -397 -337 l-22 -22 135 -185 c179
-243 266 -350 399 -488 171 -178 353 -321 547 -431 l56 -31 350 377 350 377
-90 100 c-49 56 -144 173 -211 260 -278 364 -351 448 -478 549 -76 61 -223
147 -250 147 -8 0 -183 -142 -389 -316z"/>
<path d="M24565 40984 l-515 -497 5 -36 c3 -20 10 -80 16 -135 l11 -98 565
-675 566 -675 41 6 c23 3 156 17 296 32 140 14 258 29 261 33 3 3 57 314 118
691 62 377 115 696 118 710 4 20 -16 56 -88 165 -173 262 -341 475 -534 674
-109 113 -319 301 -337 301 -4 0 -240 -223 -523 -496z"/>
<path d="M23860 40145 c0 -11 22 -228 49 -481 l48 -462 51 -83 c27 -46 109
-192 182 -324 234 -426 329 -575 480 -750 77 -91 233 -228 308 -272 l43 -26
375 39 c207 21 379 41 384 44 10 6 36 917 26 927 -3 4 -100 -21 -215 -54
l-209 -60 -58 22 c-196 74 -368 188 -540 360 -149 148 -211 224 -396 485 -235
331 -369 499 -482 610 -37 35 -46 40 -46 25z"/>
<path d="M9590 34310 l0 -800 253 0 c274 0 315 6 406 56 149 81 230 273 202
478 -6 42 -20 99 -32 125 -26 61 -98 131 -172 168 l-59 29 40 13 c116 39 188
139 199 278 14 192 -50 322 -193 393 -95 47 -185 59 -431 60 l-213 0 0 -800z
m481 600 c100 -28 144 -92 144 -210 0 -94 -17 -142 -68 -197 -50 -54 -109 -73
-229 -73 l-88 0 0 251 0 252 103 -7 c56 -3 119 -11 138 -16z m0 -685 c86 -31
135 -104 145 -217 13 -135 -30 -239 -116 -288 -39 -21 -60 -25 -157 -28 l-113
-4 0 282 0 283 99 -6 c54 -4 118 -14 142 -22z"/>
<path d="M10610 34310 l0 -800 320 0 320 0 0 90 0 90 -200 0 -200 0 0 280 0
280 140 0 140 0 0 90 0 90 -140 0 -140 0 0 250 0 250 200 0 200 0 0 90 0 90
-320 0 -320 0 0 -800z"/>
<path d="M11380 34310 l0 -800 315 0 315 0 0 90 0 90 -200 0 -200 0 0 710 0
710 -115 0 -115 0 0 -800z"/>
<path d="M12110 34310 l0 -800 315 0 315 0 0 90 0 90 -195 0 -195 0 0 710 0
710 -120 0 -120 0 0 -800z"/>
<path d="M12832 34493 c4 -671 3 -660 62 -789 69 -151 218 -224 434 -211 253
14 376 142 412 429 6 48 10 316 10 635 l0 553 -120 0 -120 0 0 -582 c0 -632
-4 -683 -54 -759 -70 -105 -264 -105 -333 0 -47 70 -47 73 -51 724 l-3 617
-120 0 -120 0 3 -617z"/>
<path d="M13950 34310 l0 -800 120 0 120 0 1 593 1 592 104 -570 c57 -313 106
-580 109 -592 5 -22 10 -23 95 -23 50 0 90 1 90 3 0 1 50 270 109 597 l109
595 1 -597 1 -598 115 0 115 0 0 800 0 800 -159 0 -159 0 -10 -47 c-6 -27 -54
-286 -107 -578 -54 -291 -101 -533 -104 -537 -4 -4 -44 196 -90 445 -46 248
-95 512 -109 585 l-25 132 -163 0 -164 0 0 -800z"/>
<path d="M20715 33865 c-142 -257 -365 -704 -479 -960 -54 -121 -112 -241
-128 -268 -40 -63 -128 -141 -226 -200 -96 -58 -127 -69 -261 -96 l-102 -21
-37 25 c-20 13 -93 49 -162 78 -264 114 -412 232 -512 409 -73 130 -88 149
-126 165 -28 12 -48 13 -82 7 l-45 -9 -1 -121 c-2 -104 -6 -134 -32 -215 -37
-117 -46 -163 -73 -364 -11 -88 -29 -200 -40 -250 -59 -264 -85 -471 -76 -598
5 -65 3 -85 -12 -115 -45 -89 -53 -139 -62 -392 -7 -220 -10 -255 -34 -340
-25 -88 -28 -116 -35 -370 -6 -225 -11 -286 -26 -335 -15 -48 -19 -86 -16
-195 3 -164 -12 -431 -38 -680 -10 -102 -24 -237 -29 -300 -6 -67 -11 -497
-11 -1030 -1 -769 1 -935 14 -1043 36 -293 86 -458 221 -732 102 -208 182
-337 284 -460 120 -146 122 -148 116 -87 -3 20 -2 29 1 20 3 -10 10 -18 15
-18 6 0 16 -15 24 -32 8 -18 14 -27 15 -20 0 8 -13 43 -30 79 -63 135 -27 303
133 627 49 99 105 219 124 266 50 121 83 183 150 285 91 137 365 468 559 675
157 167 203 234 248 360 29 80 31 102 14 129 -9 15 -7 45 11 143 18 104 22
168 26 418 4 312 19 500 61 750 26 154 238 1023 324 1325 86 303 129 515 210
1040 26 164 33 248 40 465 7 224 11 277 30 345 12 44 26 96 31 115 12 48 11
252 -1 325 -19 111 -13 181 27 315 l37 125 -3 215 c-2 236 9 324 55 427 19 45
24 72 23 137 0 44 -3 99 -7 121 l-7 40 -100 -180z"/>
<path d="M7702 28370 c-270 -37 -421 -215 -462 -544 -13 -106 -13 -765 0 -895
26 -255 113 -422 259 -500 123 -65 320 -87 412 -45 56 26 111 81 142 144 l24
47 32 -98 32 -99 110 0 109 0 0 495 0 495 -285 0 -285 0 0 -110 0 -110 140 0
140 0 0 -97 c-1 -302 -93 -448 -281 -447 -110 1 -200 73 -234 187 -30 102 -37
226 -33 657 4 410 5 427 27 493 42 128 126 190 257 190 168 0 244 -101 244
-325 l0 -88 149 0 149 0 -4 78 c-17 259 -107 443 -255 518 -97 49 -259 71
-387 54z"/>
<path d="M8580 27370 l0 -990 390 0 390 0 0 110 0 110 -245 0 -245 0 0 345 0
345 175 0 175 0 0 115 0 115 -175 0 -175 0 0 310 0 310 245 0 245 0 0 110 0
110 -390 0 -390 0 0 -990z"/>
<path d="M9520 27370 l0 -990 145 0 145 0 0 455 0 455 103 0 102 0 140 -455
140 -455 143 0 c97 0 142 4 142 11 0 8 -288 916 -306 964 -3 6 16 21 41 34
128 68 195 219 195 441 0 331 -152 486 -508 520 -59 5 -191 10 -294 10 l-188
0 0 -990z m433 760 c185 -27 267 -120 267 -305 0 -202 -94 -294 -307 -303
l-103 -4 0 311 0 311 38 0 c20 0 68 -5 105 -10z"/>
<path d="M10730 27370 l0 -990 395 0 395 0 0 110 0 110 -245 0 -245 0 0 345 0
345 175 0 175 0 0 115 0 115 -175 0 -175 0 0 310 0 310 245 0 245 0 0 110 0
110 -395 0 -395 0 0 -990z"/>
<path d="M11680 27371 l0 -991 145 0 145 0 0 455 0 455 99 0 100 0 45 -142
c24 -79 83 -269 131 -423 47 -154 91 -295 96 -312 l11 -33 144 0 c79 0 144 3
144 6 0 3 -70 224 -156 492 -103 318 -153 487 -145 490 33 11 110 75 139 115
105 146 122 445 36 622 -39 78 -123 155 -210 189 -116 47 -189 57 -466 63
l-258 6 0 -992z m508 744 c76 -23 130 -68 160 -133 23 -49 26 -70 27 -158 0
-92 -2 -105 -30 -160 -52 -101 -141 -144 -300 -144 l-75 0 0 311 0 312 85 -7
c47 -4 107 -14 133 -21z"/>
<path d="M12890 27370 l0 -990 390 0 390 0 0 110 0 110 -245 0 -245 0 0 345 0
345 175 0 175 0 0 115 0 115 -175 0 -175 0 0 310 0 310 245 0 245 0 0 110 0
110 -390 0 -390 0 0 -990z"/>
<path d="M16174 17825 c-228 -50 -374 -236 -374 -480 0 -147 38 -244 129 -336
82 -81 161 -118 445 -204 212 -65 274 -101 321 -187 24 -43 28 -64 28 -122 0
-120 -52 -205 -156 -256 -122 -59 -282 -59 -406 2 -121 59 -192 158 -215 300
l-11 70 -40 -6 c-22 -3 -66 -8 -99 -12 l-58 -7 6 -66 c34 -331 239 -532 562
-548 296 -16 505 108 589 348 46 129 38 306 -19 425 -70 148 -187 227 -451
304 -77 23 -173 53 -213 67 -155 54 -212 120 -212 242 0 80 25 137 82 185 54
46 115 67 219 73 205 13 335 -82 371 -270 14 -76 7 -73 141 -60 l67 6 0 36 c0
20 -7 67 -15 104 -43 204 -188 349 -390 392 -85 18 -219 18 -301 0z"/>
<path d="M41615 17814 c-118 -18 -202 -61 -274 -140 -77 -84 -126 -208 -133
-334 l-3 -54 60 -8 c33 -4 76 -9 96 -12 l36 -6 5 68 c13 176 123 292 278 292
159 0 270 -124 270 -301 0 -174 -79 -302 -379 -614 -238 -247 -331 -380 -380
-539 -12 -37 -21 -90 -21 -117 l0 -49 490 0 490 0 0 110 0 110 -361 2 -360 3
49 70 c28 39 119 142 202 230 320 335 416 475 454 658 28 134 17 251 -34 364
-59 129 -135 205 -244 243 -56 19 -186 32 -241 24z"/>
<path d="M42730 17806 c-74 -16 -154 -61 -200 -113 -67 -76 -129 -216 -159
-358 -48 -227 -51 -637 -5 -875 43 -228 139 -382 282 -452 63 -31 73 -33 172
-33 99 0 110 2 172 33 144 71 234 227 285 495 26 138 26 640 -1 782 -60 320
-182 487 -381 524 -71 13 -94 13 -165 -3z m165 -200 c46 -20 110 -88 139 -149
103 -221 101 -932 -4 -1138 -45 -87 -134 -158 -200 -159 -118 0 -226 115 -264
282 -49 210 -49 682 0 898 28 124 92 224 169 264 37 20 115 20 160 2z"/>
<path d="M43886 17809 c-81 -12 -175 -58 -236 -115 -80 -75 -144 -226 -152
-359 l-3 -50 60 -7 c33 -4 76 -9 96 -12 l36 -6 6 63 c8 84 22 127 60 183 48
73 112 108 204 112 64 4 80 1 128 -22 136 -67 191 -231 136 -406 -40 -126
-113 -228 -322 -446 -80 -83 -175 -185 -209 -225 -134 -155 -216 -319 -227
-451 l-6 -68 492 0 491 0 0 110 0 110 -355 0 c-195 0 -355 4 -355 8 0 17 66
108 125 172 33 36 112 120 176 186 302 316 409 506 409 723 -1 231 -120 424
-300 484 -60 20 -181 28 -254 16z"/>
<path d="M45020 17806 c-162 -36 -277 -170 -340 -396 -72 -263 -72 -788 1
-1050 45 -162 146 -298 264 -356 55 -26 69 -29 165 -29 99 0 110 2 172 33 144
71 236 227 283 482 40 218 40 596 -1 810 -58 306 -182 473 -379 509 -71 13
-94 13 -165 -3z m178 -207 c87 -43 148 -150 178 -317 21 -120 30 -473 15 -639
-19 -213 -53 -321 -129 -405 -141 -157 -336 -63 -401 194 -61 240 -50 807 20
993 25 67 86 145 134 172 52 30 124 30 183 2z"/>
<path d="M14440 16905 l0 -905 555 0 555 0 0 110 0 110 -455 0 -455 0 0 300 0
300 410 0 410 0 0 115 0 115 -410 0 -410 0 0 270 0 270 435 0 435 0 0 110 0
110 -535 0 -535 0 0 -905z"/>
<path d="M17070 17700 l0 -110 245 0 245 0 0 -795 0 -795 100 0 100 0 0 795 0
795 245 0 245 0 0 110 0 110 -590 0 -590 0 0 -110z"/>
<path d="M18240 16130 l0 -130 110 0 110 0 0 130 0 130 -110 0 -110 0 0 -130z"/>
<path d="M36838 13723 c-1289 -2124 -1828 -3018 -1825 -3026 1 -5 43 -24 92
-42 145 -53 165 -63 165 -86 0 -11 5 -17 10 -14 9 6 14 -8 11 -27 0 -5 6 -8
14 -8 8 0 15 -4 15 -10 0 -5 12 -10 26 -10 14 0 23 -4 19 -10 -4 -6 7 -10 25
-10 18 0 29 -4 25 -10 -4 -6 7 -10 25 -10 32 0 60 -13 94 -42 11 -10 30 -18
43 -18 16 0 23 -6 23 -19 0 -14 5 -18 20 -14 11 3 20 1 20 -5 0 -6 16 -16 35
-22 19 -6 35 -16 35 -21 0 -5 11 -9 24 -9 28 0 51 -24 40 -41 -4 -8 -3 -9 4
-5 7 4 22 0 34 -8 21 -15 14 -22 -14 -17 -5 0 -8 -3 -8 -8 0 -4 -41 -25 -90
-46 -50 -21 -93 -41 -95 -45 -3 -4 23 -22 58 -40 127 -67 203 -124 320 -242
106 -106 123 -119 148 -116 16 3 27 3 24 0 -8 -8 24 -32 44 -32 11 0 23 -4 26
-10 3 -5 19 -10 36 -10 16 0 29 5 29 10 0 6 9 10 20 10 11 0 20 5 20 10 0 6 8
10 18 10 11 0 24 12 30 26 7 14 17 22 22 19 6 -3 10 3 10 14 0 12 5 21 11 21
20 0 39 25 39 53 0 8 4 7 10 -3 8 -12 10 -9 10 13 0 15 5 27 11 27 5 0 8 4 4
9 -3 5 2 16 10 24 8 9 15 23 15 32 0 9 4 14 8 11 5 -3 15 10 22 29 8 19 17 35
22 35 4 0 8 9 8 21 0 11 5 17 10 14 6 -3 10 1 10 9 0 9 6 16 13 16 8 0 7 4 -3
10 -10 6 -11 10 -2 10 6 0 12 6 12 14 0 8 6 17 13 19 9 4 9 6 -1 6 -8 1 -6 8
8 23 11 12 20 28 20 35 0 7 6 13 13 13 7 0 19 16 27 35 8 19 17 35 22 35 4 0
8 14 8 31 0 16 4 28 8 25 4 -2 14 15 21 40 7 24 17 44 22 44 5 0 9 9 9 20 0
11 5 20 10 20 6 0 10 14 10 31 0 17 4 28 10 24 6 -3 10 3 10 14 0 12 5 21 10
21 6 0 10 9 10 20 0 11 5 20 10 20 6 0 10 14 10 30 0 17 5 30 10 30 6 0 10 7
10 15 0 8 4 23 9 33 5 9 12 25 15 35 3 10 10 15 16 12 6 -4 10 5 10 19 0 14 5
26 10 26 6 0 10 11 10 25 0 14 5 25 10 25 6 0 10 14 10 31 0 17 4 28 10 24 6
-4 10 5 10 19 0 14 5 26 10 26 6 0 10 11 10 25 0 13 9 40 20 60 11 20 20 44
20 55 0 11 5 20 10 20 6 0 10 14 10 30 0 17 5 30 10 30 6 0 10 11 10 24 0 14
5 28 10 31 6 3 10 17 10 31 0 13 5 24 10 24 6 0 10 11 10 24 0 14 5 28 10 31
6 3 10 19 10 35 0 31 15 48 23 28 3 -7 6 4 6 25 1 20 6 37 11 37 6 0 10 17 10
38 0 27 3 33 10 22 7 -11 10 -7 10 17 0 17 5 35 10 38 6 3 10 17 10 30 0 13 5
27 10 30 6 3 10 19 10 36 0 16 5 29 10 29 6 0 10 18 10 40 0 22 5 40 10 40 6
0 10 11 10 24 0 14 5 28 10 31 6 3 10 19 10 35 0 16 5 32 10 35 6 3 10 21 10
40 0 19 5 37 10 40 6 3 10 17 10 30 0 13 5 27 10 30 6 3 10 17 10 31 0 13 5
24 10 24 6 0 10 22 10 50 0 40 3 48 15 44 12 -5 15 2 15 29 0 20 5 39 10 42 6
3 10 24 10 46 0 21 5 39 10 39 6 0 10 20 10 45 0 25 5 45 10 45 6 0 10 15 10
34 0 19 5 38 10 41 6 3 10 21 10 40 0 19 5 37 10 40 6 3 10 26 10 51 0 24 5
44 10 44 6 0 10 23 10 51 0 27 4 48 9 45 4 -3 11 18 15 47 3 28 11 75 17 102
5 28 12 76 16 108 3 31 9 57 14 57 5 0 9 36 9 80 0 47 4 80 10 80 6 0 10 40
10 100 0 60 -4 100 -10 100 -5 0 -10 11 -10 25 0 14 -4 25 -10 25 -5 0 -10 6
-10 14 0 21 -26 67 -33 59 -4 -3 -7 1 -7 10 0 9 -5 19 -12 23 -7 5 -8 3 -3 -6
5 -9 4 -11 -4 -6 -7 4 -10 13 -8 19 2 6 -7 22 -20 35 -13 12 -23 27 -23 32 0
5 -32 47 -71 94 l-70 86 -218 0 -218 0 -95 -157z"/>
<path d="M21406 13673 c-38 -137 -42 -547 -7 -772 26 -173 80 -387 154 -616
31 -93 74 -235 97 -315 86 -303 144 -480 207 -640 36 -91 112 -288 169 -438
169 -446 267 -663 391 -867 49 -80 140 -211 168 -241 12 -13 128 -144 135
-153 11 -13 84 -46 97 -43 7 2 13 -1 12 -5 -3 -19 2 -34 9 -29 5 3 15 -4 22
-15 9 -12 27 -19 50 -20 29 0 31 -2 15 -9 -14 -6 -4 -9 38 -9 36 -1 56 3 52 9
-3 6 3 10 15 10 24 0 117 90 131 127 5 13 13 21 19 18 5 -3 10 3 10 15 0 12 5
18 10 15 6 -4 10 14 10 47 0 38 3 49 10 38 7 -12 10 -8 10 15 0 23 -3 27 -10
15 -7 -11 -10 -3 -10 28 0 24 -4 41 -9 38 -5 -3 -9 0 -8 7 1 46 -4 59 -20 53
-15 -5 -15 -4 1 9 19 14 33 51 16 40 -5 -3 -11 -1 -15 5 -3 5 -1 10 4 10 6 0
11 9 11 20 0 11 5 20 11 20 5 0 7 5 4 10 -3 6 -1 10 5 10 6 0 26 16 46 35 19
19 40 35 47 35 8 0 6 4 -3 10 -12 8 -11 10 8 10 12 0 22 3 22 8 0 8 49 32 67
32 7 0 13 5 13 10 0 6 14 10 30 10 17 0 30 5 30 10 0 6 11 10 25 10 14 0 25 5
25 10 0 6 11 10 24 10 14 0 28 5 31 10 3 6 24 10 46 10 21 0 39 5 39 10 0 6
22 10 49 10 28 0 53 5 56 10 3 6 24 10 45 10 21 0 42 5 45 10 3 6 23 10 43 10
28 0 33 3 22 10 -11 7 -7 10 18 10 22 0 32 5 32 15 0 8 7 15 16 15 8 0 13 4
10 9 -3 5 1 14 9 21 17 14 20 57 5 62 -5 2 -11 12 -13 24 -1 12 -10 33 -20 47
-9 15 -17 31 -17 37 0 5 -4 10 -10 10 -5 0 -10 7 -10 16 0 9 -5 12 -12 8 -7
-5 -9 -2 -5 9 3 9 -1 21 -11 29 -15 11 -16 11 -7 -2 6 -9 0 -4 -12 10 -13 14
-23 31 -23 38 0 6 -5 12 -12 12 -6 0 -9 3 -5 6 3 3 -5 16 -19 29 -13 12 -24
25 -24 29 0 4 -11 19 -24 33 -14 15 -22 32 -18 41 3 9 1 13 -5 9 -6 -4 -16 -1
-22 7 -9 11 -9 15 1 19 8 3 4 9 -12 15 -14 6 -19 11 -12 11 20 1 13 18 -10 25
-19 5 -21 8 -8 16 12 8 11 10 -7 10 -13 0 -23 5 -23 11 0 5 5 7 12 3 7 -5 8
-3 4 5 -5 7 -10 10 -13 7 -8 -8 -35 23 -29 33 3 5 -4 11 -15 14 -12 3 -18 10
-14 16 3 6 1 11 -4 11 -6 0 -11 4 -11 9 0 5 -13 23 -30 41 -16 18 -30 43 -30
56 0 13 -4 24 -10 24 -5 0 -9 3 -8 8 6 20 -45 85 -57 74 -5 -4 -5 -2 -2 5 4 6
0 18 -8 26 -8 9 -15 22 -15 30 0 8 -9 17 -21 20 -11 3 -23 15 -26 26 -3 12 -9
21 -14 21 -5 0 -9 9 -9 20 0 11 -7 20 -16 20 -8 0 -12 5 -9 10 4 6 -4 20 -17
31 -13 11 -17 18 -10 14 6 -3 12 -1 12 4 0 6 -7 11 -15 11 -9 0 -12 6 -8 18 3
9 2 14 -2 9 -5 -4 -17 10 -26 30 -10 21 -21 38 -26 38 -4 0 -7 3 -5 8 1 4 -2
7 -8 7 -5 0 -10 12 -10 26 0 14 -4 23 -10 19 -5 -3 -10 1 -10 10 0 12 -11 39
-28 65 -2 2 -7 -2 -12 -10 -8 -12 -10 -11 -10 6 0 12 -11 33 -24 47 -13 14
-21 28 -18 31 3 3 0 6 -7 6 -8 0 -11 6 -7 16 3 8 2 13 -2 10 -4 -2 -16 18 -25
45 -10 27 -22 49 -26 49 -5 0 -14 14 -21 30 -7 17 -16 30 -21 30 -5 0 -9 7 -9
15 0 8 -4 15 -10 15 -5 0 -10 9 -10 20 0 11 -4 20 -10 20 -5 0 -10 7 -10 15 0
8 -5 15 -11 15 -5 0 -7 5 -4 10 3 6 2 10 -4 10 -6 0 -8 7 -5 15 4 8 2 15 -4
15 -6 0 -13 -6 -15 -12 -3 -7 -6 -3 -6 9 -1 12 -5 25 -11 28 -5 3 -10 15 -10
26 0 10 -4 19 -10 19 -5 0 -10 7 -10 15 0 8 -4 15 -10 15 -5 0 -10 6 -10 13 0
7 -9 23 -20 35 -11 12 -20 28 -20 37 0 8 -4 15 -10 15 -5 0 -10 11 -10 25 0
14 -4 25 -10 25 -5 0 -10 8 -10 18 0 10 -9 24 -20 32 -11 8 -20 25 -20 37 0
13 -4 23 -10 23 -5 0 -10 8 -10 18 0 15 -2 15 -11 2 -9 -12 -10 -11 -6 7 3 12
-1 30 -9 40 -7 10 -14 14 -14 8 0 -15 -30 45 -30 62 0 7 -9 23 -20 35 -11 12
-20 28 -20 35 0 7 -4 13 -10 13 -5 0 -10 6 -10 13 0 18 -24 67 -32 67 -5 0 -8
9 -8 20 0 11 -6 20 -12 20 -9 0 -8 4 2 10 10 6 11 10 3 10 -7 0 -13 7 -13 15
0 8 -4 15 -10 15 -5 0 -10 7 -10 15 0 17 -18 52 -38 73 -7 7 -10 18 -7 23 4 5
1 9 -4 9 -6 0 -11 9 -11 19 0 24 -16 36 -23 19 -3 -7 -6 2 -6 20 -1 17 -5 32
-11 32 -5 0 -10 9 -10 20 0 11 -6 20 -12 20 -9 0 -8 4 2 10 13 8 13 10 -2 10
-11 0 -15 6 -11 20 3 11 0 20 -6 20 -6 0 -11 7 -11 16 0 8 -4 13 -9 10 -5 -3
-11 7 -14 23 -3 16 -13 36 -21 44 -12 12 -13 17 -3 20 7 3 4 6 -6 6 -10 1 -15
6 -12 11 3 6 1 10 -4 10 -6 0 -11 12 -11 26 0 14 -4 23 -10 19 -5 -3 -10 3
-10 15 0 12 -4 18 -10 15 -5 -3 -10 -1 -10 5 0 6 -4 8 -10 5 -5 -3 -10 -1 -10
4 0 6 6 11 13 12 12 0 -30 22 -48 23 -5 1 -33 49 -62 109 l-53 107 -324 0
c-301 0 -325 -1 -330 -17z m2089 -2433 c3 -5 1 -10 -4 -10 -6 0 -11 5 -11 10
0 6 2 10 4 10 3 0 8 -4 11 -10z"/>
<path d="M29125 12018 c-9 -41 -55 -251 -55 -255 0 -1 43 -3 95 -3 52 0 95 2
95 4 0 8 50 240 56 259 5 15 -4 17 -90 17 -91 0 -96 -1 -101 -22z"/>
<path d="M30043 11465 c-80 -18 -152 -57 -221 -120 -36 -33 -53 -43 -49 -30 8
25 26 107 27 118 0 4 -43 7 -95 7 -90 0 -95 -1 -100 -22 -3 -13 -77 -363 -165
-778 -88 -415 -162 -763 -164 -773 -4 -16 4 -17 92 -15 l96 3 107 503 c58 276
119 540 134 587 52 161 145 282 257 335 219 104 365 -15 329 -267 -6 -39 -62
-315 -126 -612 -63 -298 -115 -543 -115 -546 0 -3 43 -5 95 -5 52 0 95 2 95 4
0 2 55 257 122 567 115 536 121 570 122 684 1 151 -16 208 -84 275 -80 81
-225 115 -357 85z"/>
<path d="M28990 11388 c-6 -29 -78 -370 -161 -758 -83 -388 -154 -722 -159
-743 l-8 -38 96 3 95 3 162 760 c89 418 165 775 169 793 l8 32 -95 0 -95 0
-12 -52z"/>
<path d="M23718 9922 c-175 -103 -318 -190 -318 -195 0 -4 20 -42 45 -85 34
-58 60 -129 109 -292 148 -496 326 -1015 666 -1950 205 -562 323 -847 490
-1175 205 -404 477 -809 714 -1065 80 -85 305 -310 311 -310 3 0 17 -13 32
-29 16 -15 34 -26 41 -24 6 3 12 0 12 -7 0 -6 4 -9 8 -6 5 3 15 -4 22 -15 8
-10 22 -19 32 -19 10 0 18 -4 18 -10 0 -5 23 -10 50 -10 52 0 130 19 130 32 0
5 11 8 25 8 14 0 25 4 25 8 0 5 18 15 40 22 22 7 40 17 40 22 0 4 9 8 20 8 11
0 20 5 20 10 0 6 9 10 21 10 11 0 17 5 14 10 -3 6 1 10 10 10 8 0 18 7 21 15
4 8 15 15 26 15 10 0 16 5 13 10 -3 6 0 10 8 10 7 0 23 9 35 20 12 11 28 20
36 20 9 0 18 11 22 25 4 14 9 24 12 21 11 -12 32 49 32 95 0 27 5 49 10 49 6
0 10 128 10 365 0 237 -4 365 -10 365 -5 0 -10 21 -10 47 0 57 -35 173 -52
173 -5 0 -8 11 -8 25 0 16 -6 25 -15 25 -8 0 -15 6 -15 14 0 21 -29 72 -37 66
-5 -3 -13 10 -19 28 -5 18 -13 29 -17 26 -4 -4 -7 4 -7 17 0 14 -9 31 -20 39
-14 10 -16 16 -7 22 8 5 6 8 -7 8 -13 0 -17 5 -13 20 3 11 1 18 -4 14 -5 -3
-9 2 -9 10 0 9 -4 16 -10 16 -5 0 -10 8 -10 18 -1 17 -30 64 -30 46 0 -5 -9
10 -21 33 -12 24 -25 40 -30 37 -5 -3 -9 10 -9 28 0 25 -3 29 -10 18 -8 -12
-10 -11 -10 6 0 11 -9 30 -20 42 -11 12 -20 24 -20 27 0 4 -7 13 -15 22 -8 8
-12 19 -9 25 4 6 2 8 -4 4 -6 -3 -13 3 -17 14 -3 11 -11 20 -16 20 -5 0 -9 7
-9 15 0 8 -8 23 -18 33 -10 10 -16 24 -14 32 3 7 0 10 -7 6 -6 -4 -11 0 -11
11 0 15 -2 16 -10 3 -5 -8 -10 -10 -10 -4 0 5 6 16 13 23 10 11 10 13 0 7 -9
-5 -13 0 -13 13 0 12 -4 21 -10 21 -5 0 -10 4 -10 9 0 13 -41 56 -60 64 -9 3
-10 6 -2 6 6 1 12 5 12 11 0 5 -6 9 -12 7 -8 -1 -12 6 -10 17 2 11 -1 15 -7
11 -6 -3 -11 1 -11 9 0 9 -4 16 -10 16 -5 0 -10 6 -10 14 0 8 -7 16 -15 20 -8
3 -12 12 -9 21 3 8 1 15 -5 15 -6 0 -11 9 -11 20 0 11 -7 20 -15 20 -8 0 -14
3 -13 8 5 12 -55 101 -64 96 -4 -3 -8 4 -8 15 0 11 -5 23 -12 27 -7 4 -8 3 -4
-4 4 -7 2 -12 -3 -12 -6 0 -11 5 -11 10 0 6 -9 21 -21 33 -11 12 -18 30 -16
39 3 10 -1 22 -9 29 -8 6 -14 17 -14 24 0 7 -13 26 -30 43 -16 18 -30 39 -30
47 0 8 -4 15 -10 15 -5 0 -10 8 -11 18 0 14 -2 14 -9 -3 -7 -17 -9 -14 -10 15
-1 29 -3 32 -10 15 -7 -17 -9 -17 -9 -2 -1 9 -5 17 -11 17 -5 0 -10 5 -10 11
0 5 5 7 10 4 18 -11 10 11 -10 30 -11 10 -20 24 -20 31 0 7 -5 16 -11 20 -8 4
-9 -1 -4 -17 7 -23 7 -23 -8 -4 -8 10 -12 26 -9 34 3 9 1 12 -6 7 -6 -3 -13
-2 -17 4 -3 5 -1 10 5 10 6 0 8 5 5 10 -4 6 -11 8 -16 5 -5 -4 -9 3 -9 15 0
14 -4 19 -12 14 -8 -5 -9 -2 -5 10 5 13 1 19 -13 23 -19 5 -36 37 -32 60 2 7
-5 21 -15 32 -13 16 -19 18 -26 8 -6 -8 -7 -6 -3 6 5 17 -17 58 -52 95 -7 8
-9 19 -5 25 4 6 0 8 -9 4 -12 -4 -14 -1 -11 14 3 11 0 19 -6 19 -7 0 -9 -4 -6
-10 3 -5 1 -10 -4 -10 -6 0 -11 7 -11 15 0 8 -5 15 -11 15 -7 0 -9 9 -6 21 3
12 0 22 -9 26 -8 3 -14 13 -14 22 0 9 -13 32 -30 51 -16 19 -29 41 -30 48 0 6
-5 12 -11 12 -5 0 -15 14 -20 30 -6 17 -15 30 -20 30 -5 0 -9 6 -9 13 0 18
-24 67 -32 67 -5 0 -8 6 -8 13 0 8 -11 24 -25 37 -14 13 -25 27 -25 32 0 5 -9
18 -20 30 -11 12 -20 33 -21 47 l-1 26 -8 -25 c-8 -24 -8 -23 -9 8 -1 17 -5
32 -11 32 -5 0 -10 9 -10 21 0 11 -4 17 -10 14 -5 -3 -10 0 -10 8 0 8 -7 28
-15 43 -8 16 -15 25 -15 20 0 -6 -12 15 -27 45 -15 29 -30 56 -35 57 -4 2 -6
8 -2 13 3 5 -2 9 -11 9 -9 0 -16 7 -14 18 3 32 -1 42 -16 42 -8 0 -15 9 -15
19 0 10 -7 21 -15 25 -8 3 -14 9 -13 13 2 11 -25 67 -37 75 -6 5 -6 8 0 8 6 0
6 3 -1 8 -13 9 -54 93 -54 111 0 16 -26 42 -34 34 -3 -4 -6 5 -6 19 0 14 -6
31 -14 37 -8 7 -12 21 -9 31 4 14 0 20 -12 20 -12 0 -16 6 -12 20 3 11 1 20
-4 20 -5 0 -12 12 -16 28 l-7 27 -7 -25 c-6 -22 -7 -20 -8 13 -1 20 -5 37 -11
37 -5 0 -10 12 -11 28 0 24 -1 25 -9 7 -8 -18 -9 -17 -9 8 -1 15 -5 27 -11 27
-5 0 -10 11 -10 25 0 14 -4 25 -10 25 -5 0 -10 11 -10 25 0 14 -4 25 -10 25
-5 0 -10 9 -10 20 0 11 -6 20 -12 20 -9 0 -8 3 2 10 12 7 11 12 -8 28 -12 11
-22 27 -22 36 0 9 -4 16 -10 16 -5 0 -10 6 -10 14 0 29 -42 84 -74 100 -30 14
-40 31 -86 141 -29 69 -53 125 -54 125 -1 -1 -144 -85 -318 -188z m1389 -1754
c-3 -8 -6 -5 -6 6 -1 11 2 17 5 13 3 -3 4 -12 1 -19z m633 -938 c0 -5 -2 -10
-4 -10 -3 0 -8 5 -11 10 -3 6 -1 10 4 10 6 0 11 -4 11 -10z"/>
<path d="M35158 10012 c-47 -48 -92 -99 -102 -113 -9 -15 -36 -87 -60 -160
-150 -461 -327 -794 -796 -1499 -253 -380 -383 -585 -504 -794 -103 -178 -193
-315 -404 -614 -327 -465 -453 -737 -508 -1092 l-17 -111 36 -107 c20 -59 50
-158 67 -220 67 -241 136 -358 267 -450 17 -12 39 -22 48 -22 9 0 14 -4 10 -9
-3 -5 4 -12 15 -16 11 -4 32 -17 45 -31 13 -13 29 -24 35 -24 5 0 10 -4 10
-10 0 -5 11 -10 25 -10 14 0 25 -4 25 -10 0 -5 25 -10 55 -10 30 0 55 -4 55
-10 0 -5 23 -10 50 -10 28 0 50 5 50 10 0 6 17 10 38 10 21 0 42 4 48 9 5 5
20 11 34 13 34 4 170 140 170 170 0 19 2 20 10 8 6 -10 10 -11 10 -2 0 6 -1
13 -2 15 -2 1 4 10 12 19 11 11 17 12 22 4 5 -6 8 -2 8 12 0 12 5 22 10 22 14
0 80 66 80 81 0 6 14 24 30 39 17 15 30 31 30 35 0 4 10 16 22 26 14 13 16 19
7 19 -12 0 -12 2 1 9 8 6 18 7 22 5 4 -3 8 2 8 11 0 15 42 65 55 65 12 0 35
29 35 44 0 9 8 16 17 16 9 0 13 3 10 6 -4 4 1 14 11 23 9 9 23 28 31 44 8 15
18 27 23 27 4 0 8 7 8 15 0 8 5 15 10 15 6 0 10 7 10 15 0 9 9 25 20 37 11 12
20 32 20 45 0 14 4 21 10 18 6 -3 10 3 10 14 0 12 5 21 10 21 6 0 10 19 11 43
0 32 2 37 9 22 7 -18 9 -16 15 13 4 18 12 35 16 38 5 3 9 14 9 25 0 10 3 19 8
19 8 0 32 49 32 67 0 7 5 13 10 13 6 0 10 14 10 30 0 17 5 30 10 30 6 0 10 9
10 19 0 11 5 23 10 26 6 3 10 15 10 26 0 10 5 19 10 19 6 0 10 9 10 21 0 11 5
17 10 14 6 -4 10 5 10 19 0 14 5 26 10 26 6 0 10 7 10 15 0 8 5 15 10 15 6 0
10 14 10 30 0 17 5 30 10 30 6 0 10 12 10 26 0 15 4 23 11 19 6 -4 13 2 16 14
3 12 9 21 14 21 5 0 9 14 9 31 0 17 4 28 10 24 6 -4 10 5 10 19 0 14 5 26 10
26 6 0 10 9 10 19 0 11 5 23 10 26 6 3 10 15 10 26 0 11 5 17 10 14 6 -4 10 5
10 20 0 15 4 24 10 20 6 -4 10 5 10 19 0 14 3 26 8 26 8 0 32 49 32 67 0 7 5
13 10 13 6 0 10 11 10 25 0 14 5 25 10 25 6 0 10 9 10 20 0 11 5 20 10 20 6 0
10 9 10 20 0 11 7 20 15 20 8 0 15 9 15 20 0 11 5 20 10 20 6 0 10 9 10 19 0
11 5 23 10 26 6 3 10 15 10 26 0 10 5 19 10 19 6 0 10 11 10 25 0 14 5 25 10
25 6 0 10 9 10 19 0 11 4 22 8 25 4 3 14 28 22 55 7 28 17 51 22 51 4 0 8 11
8 25 0 14 5 25 10 25 6 0 10 9 10 20 0 11 4 28 9 38 19 36 51 125 51 143 0 22
16 34 23 17 3 -7 6 12 6 42 1 39 4 51 11 40 7 -11 10 -7 10 18 0 17 5 32 10
32 6 0 10 11 10 25 0 14 5 34 10 45 6 11 15 29 20 40 6 11 10 36 10 55 0 22 4
34 10 30 6 -4 10 10 10 34 0 23 4 41 9 41 5 0 11 14 15 30 3 17 9 44 12 60 4
17 10 30 15 30 5 0 9 18 9 41 0 24 4 38 10 34 6 -3 10 1 10 10 0 24 24 95 32
95 5 0 8 16 8 35 0 26 3 33 15 29 11 -5 15 1 15 24 0 17 5 34 10 37 6 3 10 17
10 31 0 13 5 24 10 24 6 0 10 14 10 30 0 17 5 30 10 30 6 0 10 14 10 30 0 17
5 30 10 30 6 0 10 11 10 24 0 14 5 28 10 31 6 3 10 19 10 36 0 16 5 29 10 29
6 0 10 14 10 30 0 17 5 30 10 30 6 0 10 11 10 25 0 14 5 25 10 25 6 0 10 11
10 24 0 14 5 28 10 31 6 3 10 22 10 41 0 19 5 34 10 34 6 0 10 16 10 36 0 21
4 33 10 29 6 -4 10 7 10 24 0 21 5 31 15 31 9 0 15 9 15 25 0 14 5 25 10 25 6
0 10 9 10 20 0 28 23 100 32 100 5 0 8 14 8 31 0 17 4 28 10 24 6 -4 10 10 10
34 0 23 5 41 10 41 6 0 10 13 10 29 0 17 5 33 10 36 6 3 10 19 10 36 0 16 5
29 10 29 6 0 10 16 10 35 0 19 5 35 10 35 6 0 10 20 10 45 0 25 5 45 10 45 6
0 10 32 10 76 0 47 -4 73 -10 69 -6 -4 -10 5 -10 20 0 15 -4 24 -10 20 -9 -6
-14 8 -11 28 1 5 -3 6 -8 3 -5 -3 -11 4 -14 15 -3 12 -10 18 -16 15 -7 -5 -9
7 -7 33 3 32 -1 43 -20 60 -13 12 -26 21 -29 21 -5 0 -448 306 -481 331 -7 6
-42 -23 -96 -79z"/>
</g>
</svg>
